<?xml version="1.0" encoding="UTF-8" standalone="no"?>
<!-- Created with Inkscape (http://www.inkscape.org/) -->

<svg
   xmlns:dc="http://purl.org/dc/elements/1.1/"
   xmlns:cc="http://creativecommons.org/ns#"
   xmlns:rdf="http://www.w3.org/1999/02/22-rdf-syntax-ns#"
   xmlns:svg="http://www.w3.org/2000/svg"
   xmlns="http://www.w3.org/2000/svg"
   xmlns:sodipodi="http://sodipodi.sourceforge.net/DTD/sodipodi-0.dtd"
   xmlns:inkscape="http://www.inkscape.org/namespaces/inkscape"
   width="34.970234mm"
   height="30.57041mm"
   viewBox="0 0 34.970234 30.57041"
   version="1.1"
   id="svg1005"
   inkscape:version="0.92.5 (2060ec1f9f, 2020-04-08)"
   sodipodi:docname="calendar.svg">
  <defs
     id="defs999" />
  <sodipodi:namedview
     id="base"
     pagecolor="#ffffff"
     bordercolor="#666666"
     borderopacity="1.0"
     inkscape:pageopacity="0.0"
     inkscape:pageshadow="2"
     inkscape:zoom="1.979899"
     inkscape:cx="67.907382"
     inkscape:cy="27.860688"
     inkscape:document-units="mm"
     inkscape:current-layer="layer1"
     showgrid="false"
     fit-margin-top="0"
     fit-margin-left="0"
     fit-margin-right="0"
     fit-margin-bottom="0"
     inkscape:window-width="1366"
     inkscape:window-height="716"
     inkscape:window-x="0"
     inkscape:window-y="0"
     inkscape:window-maximized="1" />
  <metadata
     id="metadata1002">
    <rdf:RDF>
      <cc:Work
         rdf:about="">
        <dc:format>image/svg+xml</dc:format>
        <dc:type
           rdf:resource="http://purl.org/dc/dcmitype/StillImage" />
        <dc:title></dc:title>
      </cc:Work>
    </rdf:RDF>
  </metadata>
  <g
     inkscape:label="Layer 1"
     inkscape:groupmode="layer"
     id="layer1"
     transform="translate(-46.014882,-105.01093)">
    <g
       transform="translate(-40.72919,-21.098336)"
       id="g2069"
       style="fill:#0c0d2b;fill-opacity:1">
      <path
         style="fill:#0c0d2b;fill-opacity:1;stroke-width:0.06830726"
         d="m 113.00865,156.61542 c -1.18245,-0.1477 -2.62732,-0.73628 -3.62482,-1.47659 -0.72018,-0.53451 -1.48123,-1.3675 -1.94222,-2.12583 l -0.37569,-0.61802 -5.55335,-0.003 c -4.736229,-0.003 -5.581796,-0.0177 -5.746613,-0.1029 -0.327973,-0.1696 -0.379694,-0.55607 -0.11045,-0.82531 l 0.167662,-0.16767 h 5.406691 c 5.12204,0 5.40415,-0.006 5.3585,-0.11954 -0.12422,-0.30814 -0.30627,-1.39907 -0.30707,-1.84015 l -9e-4,-0.49109 -1.28076,-0.0212 c -1.215,-0.0201 -1.29224,-0.0294 -1.50431,-0.18066 -0.12295,-0.0877 -0.28589,-0.28165 -0.36209,-0.43102 -0.12944,-0.25371 -0.1372,-0.37614 -0.11799,-1.86112 l 0.0206,-1.58954 0.197,-0.25809 c 0.35169,-0.46076 0.56865,-0.51329 2.12545,-0.51457 0.75138,-6.1e-4 1.479,0.0302 1.61692,0.0685 0.13793,0.0383 0.34518,0.15784 0.46057,0.26562 l 0.20978,0.19597 0.23589,-0.32134 c 0.3194,-0.43511 1.28988,-1.35719 1.72368,-1.63771 l 0.35333,-0.22849 -0.28502,-0.21577 c -0.49784,-0.37687 -0.52387,-0.48506 -0.52399,-2.1781 -1.4e-4,-1.62059 0.0286,-1.77847 0.38425,-2.11098 0.32265,-0.30168 0.49099,-0.32881 2.04055,-0.32881 1.54957,0 1.7179,0.0271 2.04056,0.32881 0.35129,0.32845 0.38435,0.49976 0.38435,1.99145 v 1.36834 l 0.29031,2.7e-4 c 0.60151,5.5e-4 1.86824,0.2637 2.45906,0.5108 0.11286,0.0472 0.11953,-0.12972 0.11953,-3.16775 v -3.21775 h -4.40086 -4.40086 l -0.14691,-0.18677 c -0.17638,-0.22422 -0.1432,-0.53592 0.0765,-0.7183 0.13382,-0.1111 0.45232,-0.11954 4.51103,-0.11954 h 4.36706 l -0.02,-1.97969 -0.02,-1.9797 -0.22321,-0.22321 -0.22321,-0.22321 -1.94554,-0.0201 -1.94555,-0.0201 v 0.91918 c 0,0.90449 -0.004,0.9261 -0.22345,1.35207 -0.48495,0.93949 -1.58004,1.27335 -2.51234,0.76593 -0.7367,-0.40096 -0.9528,-0.88901 -0.9528,-2.15177 v -0.87941 h -6.44729 -6.44728 l -0.0295,0.93923 c -0.03365,1.07125 -0.09668,1.27823 -0.533625,1.75226 -0.672546,0.72963 -1.786269,0.77622 -2.547049,0.10655 -0.480945,-0.42334 -0.613558,-0.81033 -0.648685,-1.89297 l -0.02937,-0.90507 h -1.860436 c -1.82443,0 -1.864928,0.003 -2.092536,0.15606 -0.365852,0.24599 -0.394723,0.42375 -0.399013,2.45669 l -0.0039,1.82722 h 9.38729 9.387284 l 0.14158,0.17998 c 0.17961,0.22835 0.17961,0.4363 0,0.66465 l -0.14158,0.17998 h -9.388706 -9.388712 l 0.0185,7.70165 c 0.01805,7.51287 0.02177,7.70647 0.151998,7.8988 0.253957,0.37507 0.327994,0.38345 3.386621,0.38345 1.666529,0 2.857165,0.0267 2.930038,0.0657 0.207988,0.11131 0.306155,0.4378 0.198895,0.6615 -0.175726,0.36649 -0.191837,0.36818 -3.336152,0.34914 -2.889617,-0.0175 -2.904716,-0.0183 -3.2611,-0.17943 -0.404653,-0.18293 -0.789381,-0.57189 -0.979245,-0.99001 -0.123733,-0.27249 -0.128348,-0.65239 -0.129152,-10.63114 l -8.32e-4,-10.34855 0.159382,-0.34153 c 0.08766,-0.18785 0.290553,-0.4598 0.450873,-0.60433 0.533012,-0.48053 0.56026,-0.48553 2.777481,-0.50996 l 1.988773,-0.0219 0.03472,-0.60891 c 0.07222,-1.26659 0.761895,-2.00749 1.86216,-2.00046 0.554188,0.004 0.874342,0.12319 1.258625,0.47036 0.402273,0.36343 0.564354,0.77 0.604472,1.51628 l 0.03397,0.63185 h 6.445731 6.44573 l 6.8e-4,-0.59769 c 5.5e-4,-0.48223 0.0315,-0.66395 0.16038,-0.94066 0.54003,-1.15969 1.9755,-1.47267 2.88964,-0.63005 0.47203,0.43511 0.59057,0.72019 0.62472,1.5024 l 0.0291,0.666 h 1.85811 c 2.07169,0 2.34189,0.0407 2.84628,0.42867 0.15749,0.12113 0.3817,0.3893 0.49824,0.59593 l 0.21191,0.37569 0.0185,6.0607 0.0185,6.0607 0.42021,0.28536 c 0.55908,0.37966 1.41239,1.20221 1.82564,1.75982 0.7006,0.94535 1.18487,2.06635 1.41104,3.2663 0.15387,0.81643 0.10365,2.41857 -0.0999,3.18524 -1.02617,3.86589 -4.61499,6.32904 -8.51217,5.84225 z m 2.10665,-1.11839 c 2.97542,-0.51887 5.21627,-2.93815 5.50442,-5.94271 0.26515,-2.7647 -1.19983,-5.3694 -3.70813,-6.59298 -1.08898,-0.53121 -1.57215,-0.63687 -2.91248,-0.63687 -1.34033,0 -1.8235,0.10566 -2.91248,0.63687 -5.27725,2.5743 -4.86529,10.2165 0.65941,12.23277 1.0748,0.39225 2.25073,0.49798 3.36926,0.30292 z m -1.75291,-1.13086 c -2.64224,-0.30711 -4.69167,-2.50363 -4.8116,-5.15693 -0.0775,-1.71455 0.50154,-3.11386 1.7842,-4.31172 0.6058,-0.56575 1.46711,-1.0435 2.27928,-1.26426 0.73947,-0.201 2.01819,-0.20023 2.76968,0.002 1.59686,0.42902 3.03517,1.68568 3.67383,3.20984 0.48348,1.15384 0.53581,2.58119 0.13815,3.76831 -0.24382,0.72788 -0.60346,1.37842 -1.02902,1.86137 -0.23746,0.26949 -0.32595,0.32446 -0.52227,0.32446 -0.28217,0 -0.5717,-0.25272 -0.5717,-0.49901 0,-0.0902 0.14968,-0.36142 0.33342,-0.60413 0.6635,-0.87647 0.96519,-1.74833 0.9634,-2.78422 -0.002,-1.20616 -0.42544,-2.21341 -1.29486,-3.08066 -0.79983,-0.79783 -1.69734,-1.20213 -2.82371,-1.27197 -1.27405,-0.079 -2.42078,0.35761 -3.32556,1.2662 -0.8811,0.88481 -1.29515,1.87979 -1.29718,3.11716 -0.001,0.75332 0.1202,1.25791 0.47921,1.99137 0.49248,1.00615 1.40662,1.78401 2.56011,2.17845 0.47193,0.16138 0.65213,0.18646 1.33134,0.18528 0.6613,-0.001 0.87196,-0.0297 1.33199,-0.18074 0.30055,-0.0986 0.61026,-0.17976 0.68824,-0.18024 0.36986,-0.002 0.59208,0.65895 0.30789,0.91614 -0.1961,0.17747 -1.08975,0.43882 -1.76503,0.51619 -0.32849,0.0376 -0.62798,0.0647 -0.66555,0.06 -0.0376,-0.005 -0.27799,-0.0328 -0.53426,-0.0626 z m -1.03991,-3.3743 c -0.32534,-0.32534 -0.24958,-0.50932 0.54544,-1.32458 l 0.7131,-0.73125 0.0212,-1.38763 c 0.0208,-1.36395 0.0239,-1.38986 0.18246,-1.51808 0.22457,-0.18167 0.52635,-0.16628 0.72984,0.0372 l 0.16766,0.16766 v 1.58835 1.58835 l -0.87381,0.87382 c -0.7614,0.76139 -0.90241,0.87382 -1.09603,0.87382 -0.14484,0 -0.28057,-0.0584 -0.38986,-0.16767 z m -5.81246,-3.91369 c 0.13836,-0.51994 0.19818,-0.91377 0.20489,-1.34907 l 0.009,-0.61477 -1.31492,-0.0186 -1.31491,-0.0186 v 1.32208 c 0,0.72715 0.0205,1.34258 0.0455,1.36762 0.025,0.025 0.52455,0.0455 1.11002,0.0455 h 1.06448 z m 6.39617,-7.15519 V 138.591 h -1.33199 -1.33199 v 1.33199 1.33199 h 1.33199 1.33199 z m -18.509027,-7.9931 c 0.385742,-0.19948 0.407607,-0.324 0.407607,-2.32129 0,-1.9973 -0.02187,-2.12182 -0.407607,-2.32129 -0.26197,-0.13547 -0.515142,-0.13117 -0.75905,0.0129 -0.376468,0.22239 -0.40441,0.38071 -0.40441,2.29143 0,1.11667 0.02762,1.81763 0.07723,1.95994 0.14383,0.41259 0.66734,0.59491 1.086228,0.3783 z m 16.774027,-0.12863 0.23224,-0.23225 v -1.94437 c 0,-1.82977 -0.008,-1.95444 -0.1343,-2.11511 -0.309,-0.39284 -0.8827,-0.41449 -1.19357,-0.0451 l -0.17489,0.20784 v 1.94835 1.94834 l 0.23225,0.23225 c 0.19039,0.19039 0.28394,0.23224 0.51913,0.23224 0.2352,0 0.32875,-0.0419 0.51914,-0.23224 z M 91.286947,148.71 c -0.566326,-0.34982 -0.642279,-0.61213 -0.64554,-2.22951 -0.0028,-1.40669 0.04237,-1.69168 0.320879,-2.02266 0.350693,-0.41678 0.57646,-0.46738 2.092724,-0.46906 0.843429,-9.3e-4 1.459256,0.0288 1.624793,0.0784 0.326824,0.0979 0.704648,0.49993 0.803114,0.85452 0.09309,0.33524 0.09459,2.70873 0.0019,3.04239 -0.0388,0.13972 -0.149877,0.3483 -0.246831,0.46353 -0.331665,0.39416 -0.412601,0.40953 -2.154601,0.40925 -1.429943,-2.3e-4 -1.612342,-0.0131 -1.796457,-0.12683 z m 3.092455,-0.95479 c 0.06648,-0.0422 0.08255,-0.35939 0.06831,-1.34802 l -0.01863,-1.29285 H 93.09709 91.765098 l -0.01863,1.29285 c -0.01425,0.98863 0.0018,1.30583 0.06831,1.34802 0.04781,0.0303 0.624856,0.0552 1.282313,0.0552 0.657457,0 1.234498,-0.0248 1.282313,-0.0552 z m 3.101622,0.967 c -0.124744,-0.0615 -0.309173,-0.21967 -0.409844,-0.35155 l -0.183038,-0.23979 -0.02075,-1.57435 c -0.01141,-0.8659 -0.0033,-1.64395 0.01806,-1.72901 0.06359,-0.25336 0.43269,-0.61867 0.745987,-0.73832 0.245854,-0.0939 0.52804,-0.10833 1.75573,-0.0898 1.387661,0.0209 1.475771,0.0301 1.715501,0.17919 0.13899,0.0864 0.32342,0.27086 0.40985,0.40985 0.14871,0.23917 0.15833,0.32954 0.17961,1.68716 0.0243,1.54867 -0.0117,1.80167 -0.30567,2.15105 -0.33196,0.39452 -0.41547,0.41062 -2.12125,0.40891 -1.301811,-0.001 -1.594601,-0.0199 -1.784187,-0.11332 z m 3.095706,-2.27587 v -1.332 h -1.331988 -1.331991 l -0.01865,1.25479 c -0.01306,0.8785 0.0052,1.28351 0.06082,1.35054 0.06401,0.0771 0.32669,0.0922 1.350641,0.0772 l 1.271168,-0.0185 z m -9.228234,-4.2286 c -0.614661,-0.27914 -0.729011,-0.68363 -0.698752,-2.47168 0.02567,-1.51681 0.08035,-1.71619 0.557277,-2.03207 0.273726,-0.1813 0.278229,-0.1818 1.798497,-0.20245 1.781611,-0.0242 1.98163,0.0222 2.32367,0.53905 l 0.192809,0.29136 v 1.58104 1.58105 l -0.187922,0.28396 c -0.342555,0.51764 -0.511226,0.56012 -2.217188,0.5584 -1.303635,-10e-4 -1.523161,-0.0173 -1.768391,-0.12866 z m 3.080585,-2.29475 v -1.29784 h -1.331992 -1.331992 l -0.01871,1.22724 c -0.01029,0.67498 -0.0033,1.26735 0.0155,1.31639 0.02685,0.07 0.3174,0.0852 1.350705,0.0706 l 1.316491,-0.0186 z m 3.054913,2.28019 c -0.190596,-0.0943 -0.350861,-0.2448 -0.461074,-0.43286 -0.166351,-0.28386 -0.168932,-0.31209 -0.168932,-1.84733 0,-1.53739 0.0024,-1.56309 0.169803,-1.84881 0.113222,-0.1932 0.268354,-0.33745 0.465563,-0.43292 0.272453,-0.13189 0.412702,-0.14318 1.779676,-0.14318 1.32136,0 1.51168,0.0142 1.73735,0.12935 0.62498,0.31898 0.69742,0.55743 0.69742,2.29556 0,1.73813 -0.0724,1.97659 -0.69742,2.29556 -0.22575,0.11522 -0.41601,0.12934 -1.74184,0.1293 -1.37823,-5e-5 -1.510029,-0.0108 -1.780546,-0.14467 z m 3.126896,-2.28163 v -1.33344 l -1.349071,0.0185 -1.349068,0.0185 -0.01871,1.22724 c -0.01029,0.67498 -0.0036,1.26669 0.01493,1.31491 0.0258,0.0672 0.34485,0.0877 1.367781,0.0877 h 1.334138 z m 3.14213,2.3516 c -0.0939,-0.0383 -0.25804,-0.15247 -0.36471,-0.25363 -0.37341,-0.35412 -0.38667,-0.42602 -0.38667,-2.09653 0,-1.67058 0.0133,-1.74287 0.38667,-2.0961 0.31881,-0.30164 0.4878,-0.32881 2.04541,-0.32881 1.30464,0 1.49491,0.0143 1.72031,0.12935 0.62668,0.31985 0.69778,0.55589 0.69593,2.31044 -0.002,1.6158 -0.0511,1.82485 -0.51495,2.17888 l -0.25809,0.197 -1.57657,0.0146 c -0.95047,0.009 -1.64438,-0.0131 -1.74733,-0.0552 z m 3.00552,-2.35016 V 138.591 h -1.33199 -1.33199 v 1.33199 1.33199 h 1.33199 1.33199 z"
         id="path2083"
         inkscape:connector-curvature="0" />
      <path
         style="fill:#0c0d2b;fill-opacity:1;stroke-width:0.06830726"
         d="m 113.12798,156.61707 c -2.36594,-0.27521 -4.5669,-1.69381 -5.73662,-3.69746 l -0.30838,-0.52823 -5.63273,-0.0182 -5.632732,-0.0182 -0.164837,-0.19165 c -0.210495,-0.24474 -0.209516,-0.4871 0.0028,-0.69945 l 0.16766,-0.16766 h 5.403979 5.40398 l -0.0454,-0.14308 c -0.13497,-0.42525 -0.30365,-1.45303 -0.30443,-1.85491 l -9e-4,-0.46107 h -1.19877 c -1.29669,0 -1.40873,-0.0247 -1.75117,-0.38667 -0.30164,-0.31881 -0.32881,-0.4878 -0.32881,-2.04541 0,-1.68161 0.044,-1.85411 0.55967,-2.19566 0.28265,-0.18721 0.28899,-0.18801 1.66362,-0.20994 1.53169,-0.0244 1.81908,0.0194 2.17522,0.33214 l 0.22997,0.20192 0.28745,-0.37259 c 0.38893,-0.50413 1.1737,-1.23977 1.68994,-1.58417 l 0.42407,-0.28291 -0.19532,-0.0809 c -0.2544,-0.10538 -0.45003,-0.31816 -0.58124,-0.6322 -0.15307,-0.36633 -0.15358,-2.94786 -6.9e-4,-3.31385 0.14153,-0.33873 0.28717,-0.49106 0.61216,-0.6403 0.23758,-0.10909 0.46042,-0.12547 1.70768,-0.12547 1.24727,0 1.47011,0.0164 1.70769,0.12547 0.63186,0.29015 0.71722,0.55346 0.71722,2.21225 v 1.32049 l 0.74766,0.0831 c 0.63073,0.0701 1.53026,0.27642 2.00171,0.45903 0.11281,0.0437 0.11954,-0.13482 0.11954,-3.17145 l 2e-5,-3.21775 h -4.35646 c -4.73342,0 -4.59099,0.0114 -4.68789,-0.37468 -0.0499,-0.19894 0.10317,-0.5435 0.26993,-0.6075 0.0608,-0.0233 2.05994,-0.0424 4.4425,-0.0424 h 4.33192 v -1.91599 c 0,-2.10535 -0.0192,-2.21952 -0.4076,-2.42036 -0.16483,-0.0852 -0.53306,-0.10362 -2.07581,-0.10362 h -1.87544 l -0.025,0.97338 c -0.0288,1.12028 -0.0995,1.32475 -0.62569,1.80978 -0.88663,0.81726 -2.28077,0.54758 -2.86393,-0.55399 -0.129,-0.24369 -0.15293,-0.41586 -0.17453,-1.25579 l -0.025,-0.97338 h -6.44072 -6.440717 l -0.02937,0.90507 c -0.03529,1.08759 -0.167013,1.46899 -0.656018,1.89943 -0.901469,0.7935 -2.304874,0.51441 -2.842953,-0.56537 -0.163745,-0.3286 -0.176079,-0.41961 -0.176079,-1.29919 v -0.94585 l -1.973852,0.02 c -1.861843,0.0189 -1.982538,0.0278 -2.126952,0.15665 -0.314306,0.28046 -0.339168,0.45805 -0.339168,2.42271 v 1.84649 h 9.361199 9.3612 l 0.16766,0.16767 c 0.0922,0.0922 0.16767,0.2473 0.16767,0.34464 0,0.0973 -0.0754,0.25242 -0.16767,0.34464 l -0.16766,0.16766 h -9.3612 -9.361199 v 7.61846 c 0,8.38808 -0.02222,7.95575 0.42281,8.22708 0.217204,0.13242 0.338053,0.13786 3.068725,0.1381 2.772169,2.8e-4 2.847076,0.004 3.022596,0.14183 0.363423,0.28587 0.178726,0.82583 -0.314106,0.91828 -0.125662,0.0236 -1.472176,0.033 -2.992252,0.0209 l -2.763776,-0.022 -0.391008,-0.19201 c -0.215054,-0.1056 -0.497714,-0.31667 -0.628134,-0.46903 -0.480605,-0.56148 -0.449464,0.2091 -0.449464,-11.12196 0,-11.33106 -0.03114,-10.56048 0.449464,-11.12195 0.13042,-0.15237 0.41308,-0.36344 0.628134,-0.46904 l 0.391008,-0.19201 1.997987,-0.0217 1.997988,-0.0217 v -0.61233 c 0,-0.38717 0.03732,-0.70165 0.101492,-0.85524 0.414329,-0.99163 1.556725,-1.42644 2.515408,-0.9574 0.692875,0.33899 1.00174,0.87505 1.056385,1.83342 l 0.03426,0.60081 h 6.437612 6.43762 l 0.0291,-0.666 c 0.0339,-0.77562 0.15613,-1.07512 0.60418,-1.4799 0.39079,-0.35306 0.70047,-0.47234 1.22693,-0.47258 0.55959,-2.6e-4 0.99271,0.19538 1.36241,0.61538 0.34665,0.39382 0.48189,0.80472 0.48189,1.46418 v 0.52966 l 1.99799,0.0217 c 1.86503,0.0203 2.01844,0.0313 2.30537,0.16589 0.40056,0.18791 0.80192,0.58741 0.98266,0.97811 0.14302,0.30916 0.14461,0.37005 0.16586,6.35734 l 0.0215,6.0452 0.38512,0.23907 c 0.55483,0.34444 1.64597,1.44691 2.05954,2.08093 0.96089,1.4731 1.36136,2.93093 1.2842,4.67489 -0.048,1.085 -0.26325,1.94799 -0.72912,2.92325 -0.4297,0.89955 -0.83525,1.47346 -1.53696,2.17508 -1.24885,1.24868 -2.84879,2.01107 -4.64782,2.21474 -0.6929,0.0784 -0.94859,0.0777 -1.65666,-0.005 z m 2.5105,-1.21859 c 1.95435,-0.50864 3.62205,-1.91179 4.45461,-3.74797 0.37994,-0.83793 0.54526,-1.6414 0.55079,-2.67681 0.008,-1.44247 -0.33048,-2.5777 -1.11911,-3.75671 -1.23473,-1.84594 -3.28791,-2.9374 -5.52566,-2.9374 -3.17513,0 -5.81804,2.1404 -6.53665,5.29381 -0.177,0.77668 -0.14644,2.16732 0.0653,2.97215 0.39662,1.5075 1.24647,2.7972 2.44121,3.70468 0.79245,0.60191 2.07305,1.1394 3.10798,1.30448 0.51633,0.0823 1.9902,-0.008 2.56152,-0.15623 z m -2.93721,-1.16533 c -1.9281,-0.47774 -3.41715,-1.92774 -3.97716,-3.87287 -0.20036,-0.69594 -0.21674,-2.07236 -0.0328,-2.75272 0.42776,-1.58182 1.55566,-2.94534 2.99259,-3.61773 1.44318,-0.6753 3.18716,-0.6753 4.63034,0 1.43672,0.67229 2.56316,2.03384 2.99302,3.61773 0.18375,0.67702 0.16509,2.05086 -0.0375,2.76258 -0.27949,0.9818 -1.0944,2.30404 -1.47959,2.40071 -0.2815,0.0707 -0.50751,-0.0255 -0.62142,-0.26438 -0.12706,-0.26645 -0.0779,-0.4089 0.30973,-0.89678 0.59538,-0.74944 0.8896,-1.63891 0.89126,-2.69443 0.002,-1.23158 -0.38856,-2.17706 -1.26116,-3.05341 -0.86802,-0.87175 -1.93649,-1.32812 -3.10949,-1.32812 -1.97344,0 -3.79661,1.42472 -4.2758,3.34134 -0.16771,0.67075 -0.10855,1.86839 0.12447,2.51989 0.76712,2.14479 3.16058,3.40695 5.2784,2.78349 0.99852,-0.29395 0.90431,-0.28287 1.10923,-0.13044 0.34904,0.25964 0.29143,0.70285 -0.11856,0.91201 -0.78592,0.40095 -2.38396,0.52874 -3.41558,0.27313 z m -0.37879,-3.24128 c -0.30714,-0.30714 -0.2393,-0.46313 0.54956,-1.26366 l 0.71723,-0.72783 v -1.35059 -1.35058 l 0.19966,-0.19967 c 0.10982,-0.10981 0.26588,-0.19966 0.34679,-0.19966 0.0809,0 0.23698,0.0899 0.34679,0.19966 l 0.19967,0.19967 v 1.47725 c 0,1.13366 -0.0223,1.52016 -0.0957,1.66171 -0.0526,0.10145 -0.44986,0.53026 -0.8827,0.95291 -0.66261,0.64702 -0.82068,0.76846 -1.00029,0.76846 -0.13541,0 -0.27455,-0.0612 -0.38098,-0.16767 z m -5.90623,-3.57216 c 0.0425,-0.21602 0.13687,-0.57548 0.20976,-0.79879 0.0879,-0.26942 0.13253,-0.59692 0.13253,-0.97338 v -0.56735 h -1.32468 c -1.14493,0 -1.33031,0.0147 -1.36615,0.10805 -0.0817,0.21296 -0.046,2.45578 0.0405,2.54227 0.0568,0.0568 0.4118,0.082 1.15638,0.082 h 1.07441 z m 6.48994,-7.49672 V 138.591 h -1.33199 -1.33199 v 1.33199 1.33199 h 1.33199 1.33199 z m -18.35865,-8.08871 0.223077,-0.19922 0.02011,-1.91584 c 0.01711,-1.63014 0.0042,-1.94658 -0.08654,-2.12206 -0.275699,-0.53314 -1.092386,-0.53665 -1.366864,-0.006 -0.151584,0.29313 -0.152905,3.73891 -0.0015,4.03161 0.238014,0.46026 0.819499,0.56169 1.211766,0.21137 z m 16.62365,-0.033 0.23224,-0.23225 v -1.96041 -1.96042 l -0.23224,-0.23225 c -0.19039,-0.19039 -0.28394,-0.23224 -0.51914,-0.23224 -0.23366,0 -0.32884,0.0419 -0.513,0.22611 -0.30029,0.30029 -0.32267,0.48789 -0.29518,2.47454 0.0197,1.42243 0.0382,1.65887 0.1416,1.80491 0.16411,0.23185 0.3805,0.33898 0.69049,0.34183 0.20978,0.002 0.30997,-0.0446 0.49523,-0.22982 z m -19.861669,16.89925 c -0.13786,-0.0739 -0.322289,-0.23471 -0.409843,-0.35746 -0.154188,-0.21617 -0.159839,-0.27344 -0.179853,-1.82268 -0.02273,-1.75961 -0.006,-1.85915 0.36875,-2.18815 0.337967,-0.29674 0.614846,-0.34418 2.008514,-0.34418 1.367158,0 1.65976,0.0469 1.981242,0.31738 0.423839,0.35664 0.443666,0.45078 0.443666,2.10676 0,1.69047 -0.03697,1.85383 -0.499348,2.20677 l -0.241046,0.18399 -1.610714,0.0159 c -1.488354,0.0147 -1.629755,0.006 -1.861368,-0.11835 z m 3.11956,-2.25417 v -1.332 h -1.331992 -1.331992 l -0.01868,1.26149 c -0.01027,0.69382 -0.0033,1.30156 0.0155,1.35055 0.02681,0.0699 0.318093,0.0851 1.350667,0.0705 l 1.316491,-0.0185 z m 3.004088,2.22671 c -0.151063,-0.0916 -0.344761,-0.29131 -0.43044,-0.44375 -0.151684,-0.26989 -0.155238,-0.31912 -0.135183,-1.87233 l 0.0206,-1.59516 0.191376,-0.25072 c 0.349174,-0.45747 0.46497,-0.48705 2.002978,-0.51168 1.59175,-0.0255 1.84961,0.0198 2.2195,0.38967 0.36988,0.36989 0.41515,0.62775 0.38966,2.2195 -0.0246,1.53801 -0.0542,1.65381 -0.51167,2.00298 l -0.25073,0.19138 -1.610714,0.0183 c -1.601953,0.0182 -1.612207,0.0174 -1.885373,-0.14824 z m 3.143561,-2.22671 v -1.332 h -1.331988 -1.331991 l -0.01868,1.26149 c -0.01027,0.69382 -0.0033,1.30156 0.0155,1.35055 0.02681,0.0699 0.318093,0.0851 1.350667,0.0705 l 1.316492,-0.0185 z m -9.153169,-4.19817 c -0.288704,-0.13822 -0.405629,-0.24381 -0.57171,-0.51624 -0.136584,-0.22406 -0.14502,-0.32831 -0.145261,-1.79525 -1.98e-4,-1.22673 0.02076,-1.59802 0.09872,-1.74878 0.144617,-0.27965 0.547705,-0.60852 0.804639,-0.65648 0.122902,-0.0229 0.87132,-0.0321 1.663151,-0.0204 1.404278,0.0207 1.445776,0.0254 1.686965,0.19085 0.136,0.0933 0.318072,0.29308 0.404603,0.444 0.151155,0.26363 0.157332,0.3334 0.157332,1.77716 0,1.44376 -0.0062,1.51354 -0.157332,1.77716 -0.08653,0.15092 -0.268613,0.35072 -0.404625,0.444 -0.243346,0.16689 -0.271925,0.16986 -1.789426,0.18586 -1.22559,0.0129 -1.584194,-0.004 -1.747053,-0.0818 z m 3.039673,-2.32518 V 138.591 h -1.366145 -1.366145 v 1.33199 1.33199 h 1.366145 1.366145 z m 3.142134,2.34836 c -0.09392,-0.0374 -0.258042,-0.15067 -0.364712,-0.25183 -0.373407,-0.35412 -0.386668,-0.42602 -0.386668,-2.09653 0,-1.67058 0.01333,-1.74287 0.386668,-2.0961 0.318143,-0.30101 0.488995,-0.32881 2.021121,-0.32881 1.330453,0 1.465863,0.0113 1.741893,0.14489 0.1803,0.0873 0.3722,0.25505 0.48264,0.42194 l 0.18334,0.27704 v 1.58104 1.58105 l -0.18334,0.27704 c -0.11044,0.16689 -0.30234,0.33465 -0.48264,0.42193 -0.27748,0.13433 -0.40604,0.14457 -1.763417,0.14056 -0.805265,-0.002 -1.540963,-0.0349 -1.634885,-0.0722 z m 3.005522,-2.3498 v -1.33344 l -1.349071,0.0185 -1.349068,0.0185 -0.01871,1.22724 c -0.01029,0.67498 -0.0036,1.26669 0.01493,1.31491 0.0258,0.0672 0.34485,0.0877 1.367781,0.0877 h 1.334138 z m 3.07447,2.29962 c -0.12996,-0.0697 -0.32928,-0.24161 -0.44293,-0.38203 l -0.20664,-0.2553 v -1.65543 -1.65543 l 0.197,-0.25827 c 0.35494,-0.46535 0.56114,-0.51363 2.19376,-0.51363 1.6696,0 1.86683,0.0493 2.19839,0.54994 l 0.19236,0.29043 0.0219,1.43969 c 0.023,1.51388 -0.0127,1.79162 -0.27263,2.1221 -0.3077,0.39117 -0.55475,0.44151 -2.17522,0.44316 -1.30279,0.001 -1.4965,-0.0129 -1.70597,-0.12523 z m 3.07318,-2.29962 v -1.33344 l -1.34907,0.0185 -1.34907,0.0185 -0.0187,1.22724 c -0.0103,0.67498 -0.004,1.26669 0.0149,1.31491 0.0258,0.0672 0.34485,0.0877 1.36779,0.0877 h 1.33413 z"
         id="path2081"
         inkscape:connector-curvature="0" />
      <path
         style="fill:#0c0d2b;fill-opacity:1;stroke-width:0.06830726"
         d="m 113.28188,156.61929 c -2.48565,-0.23717 -4.62208,-1.60607 -5.96239,-3.82038 l -0.26875,-0.444 -5.65455,-0.0341 -5.654549,-0.0342 -0.137739,-0.18451 c -0.112961,-0.15131 -0.126158,-0.22488 -0.07336,-0.40897 0.03664,-0.12774 0.136976,-0.26121 0.232839,-0.30972 0.130297,-0.0659 1.379345,-0.0855 5.513499,-0.0863 2.93978,-5.5e-4 5.34505,-0.0115 5.34505,-0.0242 0,-0.0128 -0.0627,-0.26636 -0.13939,-0.56353 -0.0767,-0.29717 -0.15815,-0.84001 -0.18108,-1.20631 l -0.0417,-0.66599 h -1.1531 c -0.81394,0 -1.21806,-0.0271 -1.37397,-0.0923 -0.29255,-0.12223 -0.64574,-0.53294 -0.6977,-0.81132 -0.0229,-0.1229 -0.0321,-0.87132 -0.0205,-1.66315 0.0211,-1.42829 0.0227,-1.44186 0.20301,-1.71408 0.32524,-0.49102 0.50056,-0.53482 2.1407,-0.53482 0.78895,0 1.51842,0.0235 1.62105,0.0522 0.10262,0.0287 0.29067,0.1436 0.41787,0.25529 l 0.23128,0.20307 0.40586,-0.49436 c 0.44582,-0.54303 1.08801,-1.12775 1.64677,-1.49938 l 0.361,-0.24011 -0.20057,-0.0831 c -0.25942,-0.10746 -0.45448,-0.31845 -0.58648,-0.63437 -0.15307,-0.36633 -0.15358,-2.94786 -6.9e-4,-3.31385 0.14153,-0.33873 0.28717,-0.49106 0.61216,-0.6403 0.23758,-0.10909 0.46042,-0.12547 1.70768,-0.12547 1.24727,0 1.47011,0.0164 1.70769,0.12547 0.63244,0.29042 0.71722,0.55273 0.71722,2.21901 v 1.32725 l 0.49523,0.045 c 0.65038,0.0591 1.4726,0.22147 1.94622,0.38442 0.20929,0.072 0.39109,0.13092 0.404,0.13092 0.0129,0 0.0235,-1.44469 0.0235,-3.21044 v -3.21044 h -4.33192 c -2.38256,0 -4.38396,-0.02 -4.44757,-0.0444 -0.17409,-0.0668 -0.30429,-0.42774 -0.22732,-0.63018 0.13566,-0.35681 -0.0149,-0.34556 4.65223,-0.34788 l 4.35458,-0.002 v -1.91599 c 0,-2.10535 -0.0192,-2.21952 -0.4076,-2.42036 -0.16488,-0.0853 -0.53374,-0.10362 -2.08222,-0.10362 h -1.88184 v 0.80729 c 0,0.9895 -0.10368,1.3809 -0.4786,1.80684 -0.68858,0.78227 -1.78076,0.85905 -2.55281,0.17948 -0.53947,-0.47487 -0.61591,-0.69061 -0.64496,-1.82023 l -0.025,-0.97338 H 102.356 95.917061 l -0.03513,0.92074 c -0.03126,0.81927 -0.0553,0.96194 -0.218099,1.2947 -0.454211,0.92837 -1.517563,1.29279 -2.444327,0.83769 -0.422754,-0.2076 -0.768555,-0.58259 -0.914768,-0.99199 -0.05611,-0.1571 -0.09076,-0.58959 -0.09264,-1.15607 l -0.003,-0.90507 H 90.27155 c -2.675459,0 -2.502427,-0.17688 -2.502427,2.55813 v 1.88184 h 9.318354 c 5.125093,0 9.368113,0.0191 9.428923,0.0424 0.16677,0.064 0.31987,0.40856 0.26994,0.6075 -0.0999,0.39797 0.50152,0.37468 -9.674322,0.37468 h -9.342895 v 7.61846 c 0,8.38808 -0.02222,7.95575 0.42281,8.22708 0.217204,0.13242 0.338053,0.13786 3.068725,0.1381 2.772169,2.8e-4 2.847076,0.004 3.022596,0.14183 0.225519,0.1774 0.246761,0.54303 0.04337,0.74642 -0.132415,0.13242 -0.227691,0.13662 -3.099393,0.13662 -3.248358,0 -3.287523,-0.004 -3.801734,-0.4115 -0.152695,-0.12094 -0.35063,-0.38369 -0.471981,-0.62653 l -0.208998,-0.41824 v -10.26075 c 0,-11.35454 -0.03198,-10.55536 0.44566,-11.13825 0.140976,-0.17204 0.399652,-0.37051 0.630941,-0.48408 l 0.392005,-0.1925 1.991754,-0.0224 1.991754,-0.0224 0.02443,-0.66064 c 0.02768,-0.7484 0.124836,-1.01168 0.521944,-1.41442 0.543737,-0.55145 1.385917,-0.6895 2.093738,-0.34319 0.669031,0.32733 0.969497,0.85247 1.037727,1.8137 l 0.04367,0.61527 h 6.444809 6.44481 v -0.53429 c 0,-0.6638 0.13438,-1.07402 0.48071,-1.46747 0.71424,-0.81143 2.01552,-0.80848 2.73262,0.006 0.33085,0.37586 0.47526,0.82867 0.47526,1.49018 v 0.49442 l 1.96383,0.0286 c 1.42256,0.0207 2.03668,0.0543 2.22813,0.1219 0.36324,0.12828 0.88793,0.61735 1.07941,1.00615 l 0.15906,0.32295 0.019,6.04519 0.019,6.0452 0.39081,0.25308 c 1.64467,1.06508 2.92715,3.07888 3.25732,5.11474 0.80782,4.98117 -3.32537,9.41533 -8.33109,8.93772 z m 1.93243,-1.12359 c 1.32953,-0.25221 2.4014,-0.80504 3.39996,-1.75357 2.11369,-2.00779 2.66008,-5.17819 1.34568,-7.8081 -0.34692,-0.69411 -0.74834,-1.22899 -1.35859,-1.81026 -0.88452,-0.84252 -1.75924,-1.34115 -2.89913,-1.65262 -0.49296,-0.1347 -0.73862,-0.1574 -1.70312,-0.1574 -1.26649,0 -1.84091,0.11232 -2.77021,0.54168 -0.98562,0.45539 -2.04254,1.32697 -2.66872,2.20075 -0.93695,1.30744 -1.38786,3.06603 -1.19312,4.65328 0.35001,2.85278 2.46576,5.16615 5.2659,5.75776 0.72679,0.15356 1.85631,0.16602 2.58135,0.0285 z m -2.23467,-1.19999 c -2.65406,-0.52072 -4.57476,-2.96718 -4.4196,-5.62939 0.0498,-0.85528 0.17608,-1.3375 0.5543,-2.11752 0.92362,-1.90483 2.75279,-3.04511 4.88477,-3.04511 2.13691,0 3.95271,1.13452 4.89351,3.05749 0.85205,1.74157 0.71772,3.76917 -0.35695,5.38824 -0.39637,0.59714 -0.66185,0.84984 -0.89019,0.84732 -0.23765,-0.003 -0.409,-0.12255 -0.49283,-0.34493 -0.0809,-0.21458 -0.0102,-0.39169 0.32597,-0.81701 0.58554,-0.74075 0.90358,-1.68163 0.90901,-2.68913 0.007,-1.25005 -0.39819,-2.21508 -1.30745,-3.11586 -0.91162,-0.90312 -1.84241,-1.29406 -3.08107,-1.29406 -1.17197,0 -2.1314,0.38319 -2.99473,1.19607 -0.93155,0.87712 -1.38613,1.9003 -1.39479,3.13942 -0.009,1.28349 0.38113,2.24203 1.28109,3.14786 0.43064,0.43346 0.67326,0.61365 1.12837,0.83806 1.10203,0.5434 2.25103,0.6255 3.40683,0.24344 0.52228,-0.17264 0.58864,-0.18058 0.75048,-0.0897 0.22641,0.12707 0.33002,0.40895 0.24221,0.65896 -0.0763,0.21736 -0.57246,0.44382 -1.31901,0.60206 -0.49398,0.10471 -1.64189,0.11761 -2.11992,0.0238 z M 112.36751,151.04 c -0.0792,-0.0657 -0.1634,-0.22002 -0.18713,-0.34282 -0.0409,-0.2115 -0.005,-0.26198 0.67888,-0.9563 l 0.72203,-0.73302 0.0211,-1.38927 0.0211,-1.38928 0.19165,-0.16471 c 0.25233,-0.21687 0.42466,-0.20784 0.66744,0.0349 l 0.19967,0.19967 v 1.5223 1.52229 l -0.90786,0.90787 c -0.96337,0.96336 -1.10225,1.04119 -1.40681,0.78833 z m -5.84825,-3.96182 c 0.12327,-0.46508 0.20454,-0.9665 0.22167,-1.36761 l 0.027,-0.6333 -1.35379,0.0185 -1.35379,0.0185 -0.0187,1.26149 c -0.0103,0.69382 -0.004,1.3009 0.0149,1.34907 0.0254,0.0663 0.30511,0.0876 1.15079,0.0876 h 1.11718 z m 6.37327,-5.83686 c 0.11544,-0.11543 0.11544,-2.52123 0,-2.63666 -0.11543,-0.11543 -2.52122,-0.11543 -2.63666,0 -0.11543,0.11543 -0.11543,2.52123 0,2.63666 0.0577,0.0577 0.44779,0.082 1.31833,0.082 0.87054,0 1.26062,-0.0242 1.31833,-0.082 z m -18.31703,-9.44304 0.235219,-0.23521 -0.02005,-1.99046 -0.02005,-1.99046 -0.223077,-0.19923 c -0.255482,-0.22817 -0.583055,-0.26273 -0.906229,-0.0956 -0.397491,0.20555 -0.415745,0.31835 -0.393562,2.43191 l 0.02011,1.91584 0.223076,0.19922 c 0.177679,0.15868 0.286802,0.19922 0.536213,0.19922 0.265815,0 0.348681,-0.0355 0.548354,-0.23522 z m 16.44807,0.15639 c 0.38844,-0.17699 0.41201,-0.28874 0.43667,-2.07033 0.0125,-0.90027 0.002,-1.77446 -0.0232,-1.94264 -0.0925,-0.61718 -0.69048,-0.94261 -1.1899,-0.64759 -0.3685,0.21768 -0.3789,0.27129 -0.40255,2.07541 -0.0121,0.92044 -0.002,1.80974 0.0231,1.97623 0.0841,0.56461 0.62624,0.85024 1.15587,0.60892 z m -19.776078,16.68882 c -0.519656,-0.32956 -0.551964,-0.47081 -0.527756,-2.30734 l 0.02075,-1.57435 0.191376,-0.25072 c 0.359352,-0.47079 0.442772,-0.48965 2.165224,-0.48965 1.65446,0 1.753186,0.0182 2.095898,0.38627 0.265919,0.28561 0.294898,0.48886 0.293732,2.06016 -0.0011,1.44527 -0.0082,1.52797 -0.155083,1.78723 -0.08633,0.15241 -0.27338,0.33947 -0.425797,0.42579 -0.259632,0.14705 -0.341005,0.15401 -1.812454,0.15509 l -1.540616,0.001 z m 3.181589,-2.19715 v -1.332 h -1.331992 -1.331992 l -0.01868,1.26149 c -0.01027,0.69382 -0.0033,1.30156 0.0155,1.35055 0.02681,0.0699 0.318093,0.0851 1.350667,0.0705 l 1.316491,-0.0185 z m 3.073826,2.26297 c -0.272003,-0.16894 -0.486766,-0.40945 -0.576062,-0.64512 -0.04337,-0.11448 -0.07286,-0.78591 -0.07286,-1.65918 0,-1.32648 0.01293,-1.49222 0.135068,-1.73163 0.30574,-0.5993 0.701192,-0.70722 2.470862,-0.6743 1.080735,0.0201 1.360735,0.0457 1.535605,0.14055 0.26425,0.14329 0.55478,0.48088 0.62292,0.72383 0.0282,0.10041 0.0512,0.84575 0.0512,1.65629 v 1.47371 l -0.18792,0.28385 c -0.34367,0.5191 -0.50749,0.55982 -2.251346,0.55952 -1.366172,-2e-4 -1.543606,-0.0133 -1.72748,-0.12752 z m 3.092353,-2.2815 0.0185,-1.35052 -1.350512,0.0185 -1.350517,0.0185 -0.01868,1.26149 c -0.01027,0.69382 -0.0033,1.30156 0.0155,1.35055 0.02681,0.0699 0.318093,0.0851 1.350667,0.0705 l 1.316492,-0.0185 z m -9.096266,-4.15084 c -0.231721,-0.0693 -0.559471,-0.36392 -0.696296,-0.62583 -0.07466,-0.14291 -0.09636,-0.5321 -0.09636,-1.72815 0,-1.64538 0.01793,-1.75012 0.353055,-2.06303 0.342573,-0.31986 0.57697,-0.36188 2.018879,-0.36188 0.743442,0 1.456781,0.0301 1.585196,0.067 0.262381,0.0752 0.58338,0.35294 0.728016,0.62979 0.139462,0.26695 0.139462,3.18935 0,3.4563 -0.144636,0.27686 -0.465635,0.55455 -0.728016,0.6298 -0.284991,0.0817 -2.888988,0.0785 -3.164471,-0.004 z m 2.856192,-0.99514 c 0.09336,-0.0358 0.108048,-0.22058 0.108048,-1.35884 0,-1.13826 -0.01469,-1.32301 -0.108048,-1.35884 -0.140833,-0.054 -2.37536,-0.054 -2.516195,0 -0.09336,0.0358 -0.108047,0.22072 -0.108047,1.36046 0,0.99128 0.02121,1.32755 0.08538,1.35344 0.123203,0.0497 2.410283,0.0531 2.538858,0.004 z m 3.216028,0.93888 c -0.316848,-0.14845 -0.541109,-0.37318 -0.644369,-0.64571 -0.04337,-0.11447 -0.07286,-0.78576 -0.07286,-1.65865 0,-1.61885 0.03143,-1.78198 0.403634,-2.09518 0.356966,-0.30036 0.602924,-0.33577 2.163112,-0.31141 1.403269,0.0219 1.445929,0.0268 1.686969,0.19207 0.13601,0.0933 0.31809,0.29308 0.40462,0.444 0.15115,0.26363 0.15733,0.3334 0.15733,1.77716 0,1.44376 -0.006,1.51354 -0.15733,1.77716 -0.0865,0.15092 -0.26861,0.35072 -0.40462,0.444 -0.24272,0.16646 -0.27515,0.16992 -1.755277,0.18709 -1.353963,0.0157 -1.535889,0.004 -1.781212,-0.11053 z m 2.931626,-0.93888 c 0.0934,-0.0358 0.10805,-0.22058 0.10805,-1.35884 0,-1.13826 -0.0147,-1.32301 -0.10805,-1.35884 -0.21297,-0.0817 -2.45578,-0.046 -2.542274,0.0405 -0.119157,0.11916 -0.115956,2.62523 0.0034,2.67339 0.123203,0.0497 2.410274,0.0531 2.538854,0.004 z m 3.25221,0.95791 c -0.31219,-0.13541 -0.46706,-0.28165 -0.62406,-0.58927 -0.1151,-0.22551 -0.12935,-0.4158 -0.12935,-1.72748 0,-1.31167 0.0143,-1.50196 0.12935,-1.72748 0.31938,-0.62577 0.55629,-0.69743 2.30595,-0.69743 1.63438,0 1.86053,0.0584 2.19702,0.56683 l 0.18334,0.27704 v 1.58104 1.58105 l -0.18334,0.27704 c -0.11044,0.16689 -0.30234,0.33465 -0.48263,0.42193 -0.27643,0.13382 -0.40859,0.14469 -1.72927,0.14222 -1.11816,-0.002 -1.48165,-0.0251 -1.66701,-0.10549 z m 2.98793,-2.27763 c 0.0142,-1.01597 -0.002,-1.33995 -0.0683,-1.38217 -0.14551,-0.0923 -2.47179,-0.0699 -2.56645,0.0247 -0.11664,0.11664 -0.11532,2.52134 10e-4,2.63811 0.0611,0.0611 0.42227,0.0785 1.34907,0.0649 l 1.26565,-0.0185 z"
         id="path2079"
         inkscape:connector-curvature="0" />
      <path
         style="fill:#0c0d2b;fill-opacity:1;stroke-width:0.06830726"
         d="m 112.4622,156.48954 c -1.55259,-0.33693 -2.87616,-1.0614 -3.96977,-2.1729 -0.48286,-0.49076 -1.13379,-1.37613 -1.32926,-1.80804 l -0.085,-0.18784 h -5.62749 -5.627491 l -0.167662,-0.16766 c -0.09221,-0.0922 -0.167664,-0.21373 -0.167664,-0.27002 0,-0.19193 0.151366,-0.43511 0.318129,-0.51109 0.11744,-0.0535 1.734283,-0.0758 5.491198,-0.0758 2.92862,0 5.32476,-0.0134 5.32476,-0.0298 0,-0.0164 -0.0612,-0.28536 -0.13605,-0.59768 -0.0748,-0.31233 -0.1562,-0.8522 -0.18085,-1.19971 l -0.0448,-0.63184 h -1.15334 c -1.28102,0 -1.48055,-0.0452 -1.78216,-0.40363 -0.29884,-0.35516 -0.33451,-0.60341 -0.31081,-2.16313 0.0213,-1.40378 0.0261,-1.44586 0.19147,-1.68697 0.34044,-0.49637 0.47243,-0.52778 2.21787,-0.52778 1.63076,0 1.69426,0.0104 2.04011,0.33281 0.17703,0.16505 0.19794,0.16985 0.25973,0.0596 0.26221,-0.46767 1.15622,-1.34212 1.91529,-1.87337 l 0.38663,-0.27059 -0.24249,-0.13059 c -0.13338,-0.0718 -0.32273,-0.25183 -0.42079,-0.40001 l -0.17829,-0.26941 v -1.57606 c 0,-1.52589 0.005,-1.5841 0.15713,-1.82876 0.0864,-0.13899 0.27086,-0.32342 0.40985,-0.40985 0.2446,-0.15209 0.30309,-0.15713 1.82377,-0.15713 1.52068,0 1.57917,0.005 1.82378,0.15713 0.13899,0.0864 0.32342,0.27086 0.40984,0.40985 0.14858,0.23894 0.15834,0.3299 0.17916,1.67008 0.0121,0.77956 0.0319,1.41738 0.044,1.41738 0.5788,0 1.92308,0.25854 2.71751,0.52265 0.11271,0.0375 0.11953,-0.14392 0.11953,-3.17867 v -3.21841 h -4.35878 c -4.29213,0 -4.36107,-0.002 -4.50828,-0.13927 -0.21674,-0.20192 -0.20202,-0.56087 0.0305,-0.74376 0.17778,-0.13985 0.23288,-0.14158 4.50828,-0.14158 h 4.32829 v -1.98992 -1.98992 l -0.24393,-0.23006 -0.24394,-0.23007 h -1.93414 -1.93415 l -0.0315,0.93923 c -0.0224,0.66786 -0.0641,1.01249 -0.14422,1.19283 -0.54881,1.23506 -2.16357,1.48882 -3.05191,0.47962 -0.37258,-0.42328 -0.47644,-0.81662 -0.47644,-1.80439 v -0.80729 h -6.48293 -6.482921 l -0.02334,1.01311 c -0.0228,0.98972 -0.02812,1.02086 -0.230255,1.34907 -0.748761,1.21575 -2.500988,1.15857 -3.15722,-0.10303 -0.218212,-0.41951 -0.221998,-0.44242 -0.221998,-1.34297 v -0.91618 h -1.94776 -1.94776 l -0.255149,0.23374 -0.25515,0.23373 -0.02003,1.98625 -0.02003,1.98625 9.343974,0.002 c 10.036059,0.002 9.502919,-0.0169 9.641609,0.34788 0.077,0.20244 -0.0532,0.56337 -0.22732,0.63018 -0.0636,0.0244 -4.3089,0.0444 -9.433996,0.0444 H 87.76919 v 7.65381 c 0,8.34421 -0.0223,7.86821 0.383537,8.18744 0.177426,0.13957 0.243946,0.14265 3.078296,0.14265 h 2.896952 l 0.167663,0.16766 c 0.206989,0.20699 0.220931,0.53045 0.03105,0.72033 -0.132473,0.13248 -0.227226,0.1366 -3.125057,0.13595 l -2.988443,-6.8e-4 -0.342967,-0.15971 c -0.404269,-0.18824 -0.730981,-0.49692 -0.940432,-0.88852 l -0.151053,-0.28241 v -10.41686 -10.41686 l 0.201435,-0.36363 c 0.191526,-0.34575 0.480945,-0.62896 0.857327,-0.83894 0.131475,-0.0733 0.650152,-0.10312 2.25414,-0.12942 l 2.083371,-0.0342 0.03666,-0.68307 c 0.04312,-0.80332 0.16938,-1.10275 0.639511,-1.51657 0.877112,-0.77207 2.297252,-0.48056 2.814995,0.57782 0.08452,0.17279 0.136797,0.47712 0.161246,0.93875 l 0.03618,0.68307 6.472119,0.0174 6.47211,0.0174 v -0.53441 c 0,-0.98605 0.32536,-1.59826 1.03818,-1.95347 0.69693,-0.3473 1.67155,-0.17235 2.13977,0.38409 0.35536,0.42233 0.46179,0.73047 0.49634,1.4371 l 0.0326,0.66599 1.98886,6.7e-4 c 1.94944,6.6e-4 1.99562,0.004 2.33039,0.16241 0.42193,0.1998 0.73016,0.51735 0.93573,0.96399 l 0.15719,0.34154 0.0208,6.01104 0.0208,6.01104 0.45601,0.30738 c 0.98861,0.6664 1.98642,1.85173 2.54068,3.01815 2.05859,4.33221 -0.32259,9.46756 -4.98512,10.75112 -0.90945,0.25036 -2.60129,0.29805 -3.51782,0.0992 z m 2.81295,-0.99721 c 1.63498,-0.33772 3.09228,-1.25676 4.09899,-2.58502 0.42918,-0.56626 0.94009,-1.65426 1.12568,-2.39717 0.2161,-0.86504 0.2177,-2.27007 0.004,-3.12624 -0.81579,-3.26152 -3.83477,-5.42092 -7.13217,-5.10145 -2.83507,0.27468 -5.11765,2.23976 -5.86812,5.05188 -0.12648,0.47395 -0.15534,0.76256 -0.15711,1.57107 -0.003,1.19274 0.14143,1.86824 0.6087,2.85466 0.39423,0.83222 0.77638,1.36075 1.44684,2.00107 0.90962,0.86873 2.09431,1.49189 3.29976,1.73573 0.62993,0.12742 1.94627,0.1251 2.57388,-0.005 z m -2.37597,-1.22507 c -1.97761,-0.39409 -3.6015,-1.92955 -4.15568,-3.92937 -0.80337,-2.89907 1.02743,-5.98613 3.96822,-6.69112 0.69533,-0.1667 1.80656,-0.18154 2.44861,-0.0327 1.98695,0.46058 3.48503,1.86786 4.06937,3.82273 0.25269,0.84533 0.26898,2.05309 0.0387,2.86891 -0.19582,0.69373 -0.53429,1.39009 -0.92812,1.90949 -0.45118,0.59502 -0.69193,0.69947 -1.01907,0.44215 -0.25495,-0.20055 -0.24496,-0.53105 0.0254,-0.83892 0.3416,-0.38906 0.67763,-1.004 0.86395,-1.58103 0.22383,-0.69323 0.25162,-1.73747 0.0645,-2.42491 -0.52989,-1.94693 -2.26677,-3.27875 -4.27595,-3.27875 -2.86237,0 -4.95703,2.66169 -4.29424,5.4567 0.0411,0.1734 0.19809,0.57654 0.34883,0.89588 0.22729,0.48147 0.37466,0.67974 0.86314,1.16122 0.66999,0.66038 1.17498,0.94616 2.0734,1.17335 0.74227,0.18771 1.62559,0.14845 2.41955,-0.10753 0.4269,-0.13765 0.59728,-0.16416 0.73015,-0.11364 0.33636,0.12788 0.42396,0.56405 0.1626,0.80959 -0.48474,0.45539 -2.23466,0.69086 -3.40336,0.45796 z m -0.4492,-3.18892 c -0.20414,-0.0987 -0.31923,-0.39488 -0.23562,-0.60639 0.0361,-0.0914 0.37565,-0.47306 0.75446,-0.84805 l 0.68875,-0.68179 v -1.37391 c 0,-1.29011 0.008,-1.38151 0.1375,-1.49835 0.18847,-0.17057 0.519,-0.1586 0.70306,0.0255 0.14564,0.14564 0.1499,0.19457 0.1499,1.7211 v 1.57121 l -0.89314,0.88596 c -0.89727,0.89005 -0.99888,0.95271 -1.30491,0.80476 z m -6.07061,-3.41955 c 0.12347,-0.57019 0.27432,-1.13518 0.35404,-1.32599 0.10128,-0.24239 0.1256,-1.02787 0.0362,-1.16874 -0.0422,-0.0665 -0.36619,-0.0825 -1.38217,-0.0683 l -1.32703,0.0186 -0.0187,1.26149 c -0.0103,0.69382 -0.004,1.3009 0.0149,1.34907 0.0255,0.0663 0.30711,0.0876 1.16152,0.0876 1.11429,0 1.12832,-0.002 1.16119,-0.15369 z m 6.51316,-6.41747 c 0.11544,-0.11543 0.11544,-2.52123 0,-2.63666 -0.11543,-0.11543 -2.52122,-0.11543 -2.63666,0 -0.11543,0.11543 -0.11543,2.52123 0,2.63666 0.0577,0.0577 0.44779,0.082 1.31833,0.082 0.87054,0 1.26062,-0.0242 1.31833,-0.082 z m -18.275605,-9.48084 0.187845,-0.20728 v -1.95251 -1.95251 l -0.232244,-0.23225 c -0.196573,-0.19657 -0.280342,-0.23224 -0.54538,-0.23224 -0.249413,0 -0.358532,0.0405 -0.536213,0.19923 l -0.223076,0.19923 -0.01999,1.97789 -0.01999,1.9779 0.179347,0.21314 c 0.331171,0.39358 0.857856,0.39767 1.209706,0.009 z m 16.501905,0.15712 c 0.33077,-0.20678 0.36269,-0.43237 0.33986,-2.40182 -0.0186,-1.60409 -0.0354,-1.8408 -0.1416,-1.9971 -0.35721,-0.52567 -1.24095,-0.40648 -1.41716,0.19112 -0.0505,0.17143 -0.0692,0.86598 -0.0549,2.04764 0.0204,1.68986 0.0294,1.79882 0.16455,1.98091 0.25304,0.34094 0.72793,0.41767 1.1093,0.17925 z m -19.695269,16.8179 c -0.287162,-0.13488 -0.404981,-0.24088 -0.57171,-0.51438 -0.136328,-0.22364 -0.145021,-0.32899 -0.145261,-1.76043 -2.87e-4,-1.70421 0.04089,-1.88874 0.493426,-2.21151 0.219649,-0.15667 0.252803,-0.15945 1.90239,-0.15945 h 1.678845 l 0.241223,0.18399 c 0.435368,0.33208 0.465369,0.47242 0.465369,2.17694 0,1.49641 -0.0027,1.52519 -0.169803,1.81033 -0.113222,0.1932 -0.268354,0.33746 -0.465563,0.43292 -0.272707,0.13202 -0.409883,0.14297 -1.759877,0.14051 -1.112398,-0.002 -1.513345,-0.0258 -1.669039,-0.0989 z m 3.02404,-2.30624 0.01852,-1.34907 h -1.367589 -1.367589 v 1.32061 c 0,0.72633 0.02114,1.34174 0.04697,1.36757 0.02583,0.0258 0.632913,0.0386 1.349068,0.0285 l 1.302101,-0.0185 z m 3.123613,2.31288 c -0.255592,-0.11641 -0.54901,-0.42503 -0.644573,-0.67795 -0.04303,-0.1139 -0.07265,-0.78488 -0.07265,-1.64571 0,-1.38928 0.007,-1.4667 0.158816,-1.75447 0.09816,-0.18607 0.261212,-0.36004 0.42692,-0.45551 0.260511,-0.15009 0.313916,-0.15396 1.885573,-0.13661 1.7991,0.0198 1.81179,0.023 2.1565,0.52945 0.14836,0.21799 0.1537,0.28021 0.1537,1.79354 0,1.78314 -0.0295,1.91422 -0.5007,2.22631 l -0.27441,0.18175 -1.542126,0.0163 c -1.186303,0.0125 -1.589407,-0.005 -1.747047,-0.0771 z m 3.024046,-2.31433 0.0185,-1.35052 -1.350512,0.0185 -1.350517,0.0185 -0.01868,1.26149 c -0.01027,0.69382 -0.0033,1.30156 0.0155,1.35055 0.02681,0.0699 0.318093,0.0851 1.350667,0.0705 l 1.316492,-0.0185 z m -9.171699,-4.20901 c -0.3161,-0.14589 -0.540763,-0.37036 -0.644369,-0.6438 -0.112998,-0.29824 -0.09618,-3.06917 0.02032,-3.348 0.118791,-0.2843 0.454247,-0.56717 0.779866,-0.6576 0.139717,-0.0388 0.853427,-0.0701 1.586022,-0.0694 1.443934,0.001 1.694472,0.0526 2.027591,0.41602 0.264602,0.28867 0.294856,0.4946 0.294856,2.007 0,1.51241 -0.03025,1.71834 -0.294856,2.007 -0.3367,0.36732 -0.577117,0.41491 -2.095898,0.41491 -1.217186,0 -1.436028,-0.0165 -1.673528,-0.1261 z m 3.00552,-2.29581 v -1.36614 h -1.331992 -1.331992 l -0.01864,1.29573 c -0.01025,0.71266 -0.0033,1.33577 0.0155,1.3847 0.02676,0.0697 0.318756,0.085 1.350631,0.0704 l 1.316491,-0.0186 z m 3.178319,2.31675 c -0.312191,-0.13541 -0.467064,-0.28165 -0.624066,-0.58927 -0.115098,-0.22551 -0.129346,-0.4158 -0.129346,-1.72748 0,-1.31167 0.01425,-1.50196 0.129346,-1.72748 0.313188,-0.61363 0.56604,-0.69062 2.280679,-0.69443 1.442567,-0.003 1.674877,0.0381 2.018427,0.35888 0.33513,0.31291 0.35306,0.41765 0.35306,2.06303 0,1.64538 -0.0179,1.75013 -0.35306,2.06304 -0.34494,0.32207 -0.57341,0.36205 -2.052581,0.3592 -1.078472,-0.002 -1.437933,-0.0255 -1.622459,-0.10549 z m 2.96933,-2.31675 v -1.36614 l -1.195373,-0.0195 c -0.657458,-0.0107 -1.264538,-0.002 -1.349069,0.0184 -0.152801,0.0376 -0.153691,0.0455 -0.153691,1.36283 0,0.99568 0.02122,1.33375 0.08538,1.36021 0.04696,0.0194 0.654042,0.0296 1.349068,0.0228 l 1.263685,-0.0124 z m 3.223,2.32595 c -0.34038,-0.1214 -0.51586,-0.28342 -0.66962,-0.61827 -0.1091,-0.23757 -0.12547,-0.46041 -0.12547,-1.70768 0,-1.58197 0.0519,-1.83337 0.44133,-2.13974 0.32344,-0.25441 0.65181,-0.29614 2.14775,-0.27294 1.37669,0.0213 1.42093,0.0264 1.66163,0.19152 0.13601,0.0933 0.31809,0.29308 0.40462,0.444 0.14628,0.25512 0.15897,0.3656 0.18069,1.57224 0.0281,1.56196 -0.028,1.89453 -0.37921,2.24569 -0.13604,0.13604 -0.35753,0.27795 -0.4922,0.31536 -0.38055,0.10571 -2.85454,0.0821 -3.16952,-0.0302 z m 2.94515,-1.00762 c 0.10498,-0.10498 0.11494,-2.39278 0.0113,-2.5865 -0.066,-0.12323 -0.15476,-0.13213 -1.31833,-0.13213 -0.8793,0 -1.27182,0.0242 -1.32959,0.082 -0.0577,0.0577 -0.082,0.44779 -0.082,1.31833 0,0.87054 0.0242,1.26062 0.082,1.31833 0.0577,0.0577 0.44779,0.082 1.31833,0.082 0.87054,0 1.26061,-0.0242 1.31833,-0.082 z"
         id="path2077"
         inkscape:connector-curvature="0" />
      <path
         style="fill:#0c0d2b;fill-opacity:1;stroke-width:0.06830726"
         d="m 112.62964,156.51846 c -0.57315,-0.10382 -1.55686,-0.43319 -2.08005,-0.69645 -1.28908,-0.64866 -2.48212,-1.77586 -3.21638,-3.03887 l -0.26729,-0.45976 -5.6107,-10e-4 c -5.349809,-0.001 -5.61794,-0.007 -5.766272,-0.12727 -0.2054,-0.16633 -0.208154,-0.5121 -0.0057,-0.71459 l 0.149876,-0.1499 5.394396,-0.0183 c 2.96692,-0.01 5.3944,-0.0269 5.3944,-0.0373 0,-0.0105 -0.0611,-0.29881 -0.13568,-0.64072 -0.0746,-0.34191 -0.15601,-0.88608 -0.18085,-1.20925 l -0.0452,-0.5876 H 105.141 c -1.43627,0 -1.72964,-0.10464 -2.01094,-0.71723 -0.10879,-0.2369 -0.12547,-0.4594 -0.12547,-1.67352 0,-1.21275 0.0168,-1.43728 0.1254,-1.67636 0.13601,-0.29942 0.47539,-0.62359 0.71611,-0.68401 0.083,-0.0208 0.846,-0.0285 1.69557,-0.0171 l 1.54466,0.0208 0.28747,0.23116 c 0.19905,0.16006 0.30277,0.20638 0.33724,0.1506 0.33783,-0.54661 1.47855,-1.63369 2.1042,-2.00525 0.1221,-0.0725 0.222,-0.14338 0.222,-0.15749 0,-0.0141 -0.0912,-0.0728 -0.20274,-0.13049 -0.30818,-0.15936 -0.52972,-0.43438 -0.61148,-0.75908 -0.0965,-0.38322 -0.0954,-2.6137 0.002,-2.99848 0.10649,-0.42292 0.46174,-0.75902 0.90642,-0.85756 0.2177,-0.0482 0.84142,-0.0688 1.64809,-0.0543 1.40466,0.0253 1.54725,0.0585 1.90495,0.4443 0.2563,0.27641 0.31504,0.65569 0.31504,2.03421 v 1.26759 h 0.43645 c 0.51421,0 1.37152,0.15278 1.92406,0.34288 0.21624,0.0744 0.43446,0.13527 0.48493,0.13527 0.0755,0 0.0918,-0.56852 0.0918,-3.21044 v -3.21044 h -4.36245 c -4.30995,0 -4.36462,-0.002 -4.54243,-0.14157 -0.24891,-0.19579 -0.24891,-0.54568 0,-0.74146 0.17781,-0.13988 0.23244,-0.14158 4.54633,-0.14158 h 4.36636 l -0.021,-1.93287 c -0.0295,-2.71413 0.14929,-2.53226 -2.51918,-2.56308 l -1.8898,-0.0218 -0.0311,0.94397 c -0.0337,1.02213 -0.12123,1.33943 -0.48979,1.77543 -0.6409,0.75815 -2.02375,0.75636 -2.69091,-0.003 -0.38164,-0.43466 -0.44442,-0.662 -0.47866,-1.73338 l -0.0311,-0.97373 -6.46451,0.0174 -6.464507,0.0174 -0.03415,0.99045 c -0.03805,1.10343 -0.107784,1.33276 -0.535229,1.76021 -0.331515,0.33151 -0.718862,0.49064 -1.198681,0.49243 -0.553131,0.002 -0.884806,-0.1122 -1.244353,-0.42868 -0.518621,-0.45651 -0.597736,-0.68207 -0.639741,-1.82396 l -0.03643,-0.99045 h -1.87845 c -2.694648,0 -2.527368,-0.16911 -2.527368,2.55498 v 1.91914 h 9.314729 9.31473 l 0.17998,0.14158 c 0.23251,0.18289 0.24722,0.54184 0.0305,0.74376 -0.14894,0.13875 -0.1844,0.13927 -9.495576,0.13927 h -9.346075 l 0.01794,7.75157 0.01794,7.75157 0.223226,0.2233 0.223226,0.22331 2.976241,0.0342 2.976241,0.0341 0.130512,0.16126 c 0.17784,0.21974 0.165372,0.49941 -0.03047,0.68339 l -0.160979,0.15123 -3.032386,-0.0198 c -2.959844,-0.0193 -3.038995,-0.0233 -3.308685,-0.16772 -0.151964,-0.0814 -0.404009,-0.28648 -0.560099,-0.45582 -0.533094,-0.57834 -0.499555,0.2088 -0.479397,-11.25099 0.01792,-10.18949 0.01822,-10.20907 0.160593,-10.51665 0.186202,-0.40227 0.52306,-0.73283 0.94885,-0.9311 0.334679,-0.15585 0.391064,-0.15973 2.333207,-0.16038 l 1.99024,-6.7e-4 0.02852,-0.70015 c 0.02203,-0.54082 0.06129,-0.76232 0.17253,-0.97338 0.711592,-1.35012 2.618811,-1.3103 3.271657,0.0683 0.133607,0.28214 0.161852,0.45143 0.162403,0.97338 l 6.67e-4,0.63184 h 6.480064 6.48005 l 0.0325,-0.67572 c 0.0285,-0.59088 0.0584,-0.72166 0.23812,-1.04168 0.45311,-0.80662 1.33543,-1.14205 2.2154,-0.84221 0.75675,0.25785 1.13969,0.86374 1.20159,1.90114 l 0.0388,0.6512 2.05647,0.0207 2.05648,0.0207 0.31726,0.1865 c 0.36834,0.21654 0.64295,0.5205 0.81887,0.90641 0.11749,0.25774 0.12464,0.61506 0.12605,6.30049 l 0.002,6.02726 0.25935,0.16372 c 2.78094,1.75553 4.14389,5.24529 3.29815,8.44471 -0.66108,2.50084 -2.56967,4.53576 -5.02303,5.35551 -1.12345,0.37538 -2.64173,0.48598 -3.79746,0.27664 z m 2.155,-0.94909 c 0.6023,-0.0462 1.34932,-0.25215 1.99286,-0.54948 1.82405,-0.84277 3.17686,-2.46352 3.72693,-4.46512 0.20757,-0.75529 0.2073,-2.47607 -4.8e-4,-3.23242 -0.54622,-1.98801 -1.75176,-3.48118 -3.53347,-4.37649 -3.18092,-1.59842 -7.02568,-0.40909 -8.81741,2.72756 -0.99243,1.73738 -1.11165,3.99001 -0.3119,5.89346 0.4436,1.05581 1.44901,2.269 2.41417,2.91311 0.59098,0.3944 1.33443,0.73582 1.99968,0.91833 0.51503,0.1413 1.53538,0.26411 1.8807,0.22637 0.0939,-0.0103 0.38594,-0.0351 0.64892,-0.0553 z m -1.70768,-1.26774 c -0.42105,-0.0759 -1.13783,-0.31273 -1.50276,-0.49642 -0.68425,-0.34443 -1.5041,-1.04213 -1.98515,-1.68937 -0.30147,-0.40564 -0.71595,-1.28864 -0.86155,-1.83545 -0.19502,-0.73239 -0.19305,-1.95644 0.004,-2.69866 0.49667,-1.86758 1.8757,-3.28833 3.76451,-3.87841 0.43836,-0.13694 0.65527,-0.16004 1.50276,-0.16004 0.84749,0 1.06441,0.0231 1.50276,0.16004 1.8827,0.58817 3.26929,2.01553 3.76339,3.87405 0.19977,0.7514 0.20109,1.96818 0.003,2.71286 -0.19189,0.72121 -0.69913,1.67964 -1.13012,2.13541 -0.38674,0.40897 -0.53723,0.45165 -0.81686,0.2317 -0.27582,-0.21696 -0.23985,-0.47725 0.13481,-0.97567 0.70116,-0.93275 0.94579,-1.65411 0.94148,-2.77627 -0.003,-0.67363 -0.0297,-0.86339 -0.19062,-1.332 -0.51848,-1.51014 -1.64393,-2.55117 -3.18141,-2.94278 -0.65645,-0.1672 -1.85873,-0.10716 -2.47732,0.12371 -1.72314,0.64311 -2.85756,2.14938 -2.96674,3.9392 -0.13175,2.15969 1.43707,4.16854 3.58193,4.5866 0.62706,0.12222 1.64225,0.0516 2.27021,-0.15786 0.43977,-0.14671 0.54132,-0.15924 0.71723,-0.0885 0.42098,0.16936 0.38001,0.70321 -0.0708,0.92224 -0.65768,0.31955 -2.17771,0.49448 -3.00304,0.3456 z m -0.66995,-3.29079 c -0.17499,-0.157 -0.20772,-0.2411 -0.19198,-0.49335 0.004,-0.0714 0.33084,-0.45728 0.72532,-0.85759 l 0.71722,-0.72783 v -1.33013 c 0,-1.53367 0.0289,-1.63376 0.47144,-1.63376 0.47466,0 0.48487,0.0389 0.48487,1.8507 v 1.60087 l -0.83677,0.83175 c -0.47358,0.47075 -0.91412,0.85048 -1.01499,0.87489 -0.13127,0.0318 -0.22484,0.001 -0.35511,-0.11555 z m -5.94597,-3.67425 c 0.0495,-0.24295 0.15209,-0.62546 0.22792,-0.85002 0.18839,-0.55786 0.19146,-1.3046 0.006,-1.40398 -0.0759,-0.0406 -0.61569,-0.0707 -1.26817,-0.0707 -0.65248,0 -1.19229,0.0301 -1.26818,0.0707 -0.12343,0.0661 -0.13212,0.15517 -0.13212,1.35476 0,0.70623 0.0212,1.30526 0.0471,1.33118 0.0259,0.0259 0.55349,0.0387 1.17238,0.0285 l 1.12524,-0.0187 z m 6.43149,-6.09527 c 0.11544,-0.11543 0.11544,-2.52123 0,-2.63666 -0.11543,-0.11543 -2.52122,-0.11543 -2.63666,0 -0.11543,0.11543 -0.11543,2.52123 0,2.63666 0.0577,0.0577 0.44779,0.082 1.31833,0.082 0.87054,0 1.26062,-0.0242 1.31833,-0.082 z m -18.521994,-9.25118 c 0.419505,-0.19907 0.434234,-0.28113 0.434234,-2.41914 v -1.92282 l -0.232244,-0.23225 c -0.198237,-0.19823 -0.279257,-0.23224 -0.553289,-0.23224 -0.274032,0 -0.355052,0.034 -0.553289,0.23224 l -0.232245,0.23225 v 1.94834 1.94835 l 0.182274,0.21662 c 0.29455,0.35005 0.56314,0.41439 0.954559,0.22865 z m 16.744724,-0.0654 c 0.32211,-0.21105 0.35648,-0.4344 0.35648,-2.31614 0,-1.89281 -0.0312,-2.09042 -0.36397,-2.30849 -0.22231,-0.14567 -0.71755,-0.15096 -0.91906,-0.01 -0.33548,0.23498 -0.35636,0.37171 -0.35609,2.33198 2.8e-4,1.71496 0.009,1.84488 0.13796,2.05647 0.24473,0.40141 0.7438,0.50866 1.14468,0.24599 z m -19.691699,16.81553 c -0.254561,-0.11362 -0.548579,-0.42202 -0.644573,-0.67608 -0.04303,-0.1139 -0.07265,-0.78488 -0.07265,-1.64571 0,-1.38928 0.007,-1.4667 0.158816,-1.75447 0.09901,-0.18768 0.25978,-0.3585 0.42692,-0.45361 0.255546,-0.14542 0.340098,-0.15257 1.805018,-0.15257 1.468689,0 1.54898,0.007 1.80875,0.15396 0.152417,0.0863 0.339472,0.27338 0.425797,0.42579 0.146597,0.25884 0.154014,0.343 0.155083,1.75972 0.0012,1.62094 -0.02733,1.77822 -0.38323,2.11098 -0.107942,0.10093 -0.282789,0.2162 -0.388549,0.25616 -0.294137,0.11113 -3.033321,0.091 -3.291379,-0.0242 z m 3.024113,-2.28897 c 0.01424,-1.01598 -0.0018,-1.33995 -0.06831,-1.38217 -0.100406,-0.0637 -2.378557,-0.0779 -2.540376,-0.0158 -0.09334,0.0358 -0.108047,0.22022 -0.108047,1.35476 0,0.72232 0.02114,1.33444 0.04697,1.36027 0.02583,0.0258 0.632913,0.0386 1.349068,0.0285 l 1.302101,-0.0185 z m 3.118171,2.25626 c -0.32457,-0.14742 -0.545563,-0.40326 -0.648379,-0.75064 -0.04515,-0.15256 -0.06472,-0.79702 -0.0512,-1.68659 0.02133,-1.40378 0.02611,-1.44586 0.191471,-1.68697 0.09328,-0.136 0.284711,-0.31197 0.425406,-0.39104 0.243059,-0.13661 0.335331,-0.14275 1.850967,-0.12318 l 1.59515,0.0206 0.24105,0.18399 c 0.43519,0.33219 0.46519,0.47256 0.46519,2.17694 0,1.49641 -0.003,1.52519 -0.16981,1.81033 -0.11322,0.1932 -0.26835,0.33746 -0.46556,0.43292 -0.27177,0.13156 -0.41176,0.14306 -1.725722,0.14168 -1.244112,-0.001 -1.466173,-0.0179 -1.708562,-0.12803 z m 3.071885,-1.00313 c 0.0228,-0.0594 0.0415,-0.64126 0.0415,-1.29296 0,-0.98611 -0.018,-1.20292 -0.10734,-1.29225 -0.0893,-0.0893 -0.30613,-0.10734 -1.292247,-0.10734 -0.651701,0 -1.233532,0.0187 -1.292958,0.0415 -0.09334,0.0358 -0.108048,0.22022 -0.108048,1.35476 0,0.72232 0.02049,1.3338 0.04554,1.35884 0.02505,0.025 0.636523,0.0455 1.358837,0.0455 1.134546,0 1.318936,-0.0147 1.354756,-0.10805 z m -9.135261,-5.4537 c -0.31925,-0.11683 -0.548192,-0.32313 -0.689825,-0.62159 -0.08603,-0.1813 -0.106309,-0.50599 -0.106309,-1.70212 0,-1.33631 0.01292,-1.5034 0.134709,-1.74213 0.314777,-0.61701 0.624398,-0.70339 2.418291,-0.67467 1.538135,0.0246 1.653926,0.0542 2.002979,0.51186 l 0.191375,0.2509 v 1.65001 1.65001 l -0.191375,0.25091 c -0.352495,0.46214 -0.457269,0.48786 -2.062764,0.50638 -1.096531,0.0127 -1.496321,-0.006 -1.697081,-0.0796 z m 2.926612,-2.32774 v -1.36614 h -1.331992 -1.331992 l -0.01864,1.29573 c -0.01025,0.71266 -0.0033,1.33577 0.0155,1.3847 0.02676,0.0697 0.318756,0.085 1.350631,0.0704 l 1.316491,-0.0186 z m 3.222995,2.32595 c -0.340382,-0.1214 -0.515857,-0.28342 -0.66962,-0.61827 -0.109095,-0.23757 -0.125468,-0.46041 -0.125468,-1.70768 0,-1.66969 0.04933,-1.86686 0.550018,-2.19839 l 0.290513,-0.19236 1.376242,-0.023 c 1.506129,-0.0252 1.809659,0.0187 2.158079,0.31189 0.37247,0.31342 0.40366,0.47579 0.40366,2.10184 0,1.08954 -0.0243,1.53105 -0.0932,1.69599 -0.11879,0.28431 -0.45424,0.56717 -0.77986,0.65761 -0.38685,0.10743 -2.791547,0.0861 -3.110384,-0.0276 z m 2.956404,-1.05777 c 0.10588,-0.19783 0.093,-2.40698 -0.0149,-2.55453 -0.0765,-0.10466 -0.22335,-0.11511 -1.383222,-0.0984 l -1.297607,0.0187 -0.01864,1.29573 c -0.01025,0.71266 -0.0035,1.33511 0.01493,1.38322 0.02566,0.0669 0.339463,0.0875 1.331151,0.0875 1.212968,0 1.302188,-0.009 1.368288,-0.13212 z m 3.31388,1.09326 c -0.30379,-0.0729 -0.55675,-0.25999 -0.73167,-0.54129 -0.14932,-0.24011 -0.1549,-0.30585 -0.1549,-1.82514 v -1.57605 l 0.18175,-0.27464 c 0.31649,-0.47825 0.51352,-0.53189 2.04645,-0.55717 1.4603,-0.0241 1.77066,0.0208 2.10866,0.30526 0.39378,0.33134 0.4105,0.41719 0.4105,2.10759 0,1.68974 -0.0168,1.77635 -0.40951,2.10677 -0.11522,0.0969 -0.32381,0.20802 -0.46353,0.24683 -0.28373,0.0788 -2.66581,0.085 -2.98775,0.008 z m 2.82252,-1.04311 c 0.12582,-0.12582 0.11463,-2.53818 -0.0123,-2.64349 -0.0653,-0.0542 -0.49031,-0.0725 -1.38322,-0.0596 l -1.28899,0.0186 -0.0186,1.29573 c -0.0102,0.71266 -0.004,1.33511 0.0149,1.38322 0.0466,0.12133 2.56719,0.12651 2.68818,0.006 z"
         id="path2075"
         inkscape:connector-curvature="0" />
      <path
         style="fill:#0c0d2b;fill-opacity:1;stroke-width:0.06830726"
         d="m 112.67375,156.51437 c -1.16199,-0.20984 -2.33234,-0.71213 -3.25841,-1.39844 -0.82333,-0.61017 -1.75194,-1.68188 -2.17042,-2.50486 l -0.14762,-0.29031 h -5.63396 c -5.542885,0 -5.636169,-0.002 -5.770575,-0.13662 -0.174426,-0.17442 -0.180705,-0.55369 -0.0117,-0.70663 0.114018,-0.10319 0.59578,-0.11305 5.521505,-0.11305 2.96812,0 5.41274,-0.0162 5.43247,-0.0359 0.0197,-0.0197 -0.0215,-0.24259 -0.0917,-0.49523 -0.0702,-0.25263 -0.1637,-0.80514 -0.20786,-1.22779 l -0.0803,-0.76846 -1.13156,-10e-4 c -0.95118,-0.001 -1.17511,-0.0215 -1.40478,-0.12697 -0.62345,-0.28629 -0.71048,-0.55795 -0.71385,-2.22813 -0.003,-1.4063 0.0424,-1.69171 0.32052,-2.02223 0.31254,-0.37145 0.47561,-0.40268 2.10221,-0.40268 1.57026,0 1.69397,0.0219 2.07058,0.36659 l 0.15918,0.14568 0.148,-0.20316 c 0.44714,-0.61384 1.24342,-1.3799 1.85951,-1.78896 0.3369,-0.22369 0.37283,-0.26756 0.26895,-0.32839 -0.25562,-0.14968 -0.52067,-0.40222 -0.61636,-0.58726 -0.0793,-0.15328 -0.10001,-0.51786 -0.10001,-1.75775 0,-1.51403 0.005,-1.57177 0.15532,-1.79483 0.0854,-0.12676 0.25903,-0.30037 0.38579,-0.38579 0.22328,-0.15047 0.27997,-0.15532 1.81549,-0.15532 1.53128,0 1.59268,0.005 1.81084,0.15369 0.49736,0.3385 0.50788,0.37746 0.54576,2.01984 l 0.0342,1.48091 0.61476,0.0439 c 0.64068,0.0458 1.62662,0.25323 2.05554,0.43244 0.13719,0.0573 0.26105,0.10422 0.27525,0.10422 0.0142,0 0.0258,-1.46007 0.0258,-3.24459 v -3.2446 h -4.36245 c -4.30995,0 -4.36462,-0.002 -4.54243,-0.14157 -0.21736,-0.17097 -0.23777,-0.45499 -0.0494,-0.68762 l 0.13056,-0.16126 4.41187,-0.0185 4.41188,-0.0185 -1.3e-4,-1.85991 c -1.4e-4,-2.04564 -0.0216,-2.16883 -0.4317,-2.46982 -0.18416,-0.13518 -0.27828,-0.14147 -2.11753,-0.14147 h -1.92479 l -0.0342,1.02461 c -0.0323,0.9701 -0.0444,1.04202 -0.22656,1.35194 -0.20954,0.35648 -0.6031,0.67904 -0.98044,0.80357 -0.13196,0.0436 -0.44827,0.0674 -0.70291,0.053 -0.57709,-0.0326 -1.02943,-0.28733 -1.34586,-0.75788 -0.27737,-0.41251 -0.36448,-0.83347 -0.36448,-1.7614 v -0.74802 h -6.48293 -6.482922 l -0.02468,1.00754 c -0.02846,1.16152 -0.101951,1.37634 -0.629867,1.84103 -0.919877,0.80971 -2.412325,0.4349 -2.842088,-0.71374 -0.11042,-0.29512 -0.136175,-0.53217 -0.136175,-1.2533 v -0.88933 l -1.92968,0.021 c -2.696684,0.0293 -2.510292,-0.16218 -2.510292,2.57911 v 1.91599 h 9.314729 9.314725 l 0.17998,0.14158 c 0.2489,0.19578 0.2489,0.54567 0,0.74146 l -0.17998,0.14157 h -9.314725 -9.314729 v 7.69111 c 0,8.51352 -0.03185,7.91479 0.436179,8.19815 0.197108,0.11933 0.427722,0.1313 3.138465,0.16295 2.796188,0.0326 2.930014,0.04 3.022596,0.16674 0.14441,0.19767 0.117559,0.43354 -0.07079,0.6219 l -0.167663,0.16766 h -2.903601 c -2.762724,0 -2.921813,-0.007 -3.278964,-0.14044 -0.430584,-0.1611 -0.929654,-0.65906 -1.076774,-1.07438 -0.07281,-0.20555 -0.0899,-2.21434 -0.0899,-10.56818 0,-11.51309 -0.04359,-10.51343 0.48393,-11.09734 0.520758,-0.57641 0.540019,-0.58045 2.880202,-0.60397 l 2.066295,-0.0208 v -0.53037 c 0,-0.94621 0.28205,-1.51502 0.944253,-1.9043 0.277118,-0.1629 0.391817,-0.18765 0.865889,-0.18682 0.604009,10e-4 0.856474,0.0953 1.252593,0.46776 0.40035,0.37641 0.512609,0.67761 0.544522,1.46096 l 0.02852,0.70015 h 6.471402 6.47141 l 0.0391,-0.65483 c 0.0494,-0.82807 0.25736,-1.30273 0.71146,-1.62394 0.40456,-0.28617 0.66282,-0.37379 1.12001,-0.38001 0.65595,-0.009 1.28605,0.38319 1.6381,1.01941 0.055,0.0993 0.10943,0.47086 0.13018,0.88799 l 0.0357,0.71723 2.04921,0.0342 c 1.97456,0.0329 2.06104,0.04 2.3735,0.19385 0.17835,0.0878 0.43027,0.28353 0.55983,0.43489 0.467,0.54559 0.44788,0.25274 0.44788,6.86053 v 5.96217 l 0.42692,0.28771 c 1.12888,0.76076 2.22694,2.09239 2.75221,3.33767 0.68296,1.61911 0.80364,3.45279 0.33603,5.1057 -0.21183,0.74874 -0.8081,1.96073 -1.25368,2.5482 -0.67309,0.88743 -1.73686,1.77667 -2.72343,2.2766 -1.34212,0.68009 -3.25522,0.95518 -4.75692,0.68399 z m 2.69151,-1.01944 c 2.43088,-0.51213 4.37108,-2.33019 5.1005,-4.77939 0.16548,-0.55564 0.18338,-0.72316 0.18622,-1.74184 0.003,-0.96838 -0.019,-1.20882 -0.15388,-1.70768 -0.64611,-2.38911 -2.46074,-4.19645 -4.85145,-4.83195 -0.56094,-0.14911 -0.80201,-0.17466 -1.64754,-0.17466 -0.85164,0 -1.08497,0.0251 -1.66477,0.17903 -2.37295,0.63004 -4.18494,2.43868 -4.83655,4.82758 -0.21409,0.7849 -0.22837,2.42562 -0.0279,3.20891 0.38251,1.49477 1.17217,2.74184 2.31537,3.65651 1.59732,1.27802 3.62916,1.7745 5.58003,1.36349 z m -2.24295,-1.20153 c -1.14446,-0.1903 -2.10197,-0.70042 -2.98455,-1.59004 -0.51021,-0.51429 -0.67268,-0.73377 -0.94049,-1.2706 -0.4329,-0.8677 -0.60034,-1.55043 -0.6031,-2.45906 -0.003,-0.93601 0.14335,-1.57444 0.55528,-2.4249 0.54318,-1.12145 1.37885,-1.95984 2.48125,-2.48932 0.8711,-0.41839 1.30423,-0.51203 2.36841,-0.51203 1.08924,0 1.51401,0.0956 2.42491,0.54571 1.42234,0.70283 2.52241,2.10185 2.8652,3.64381 0.15822,0.71169 0.14627,1.81031 -0.0272,2.50042 -0.1783,0.70939 -0.67547,1.69572 -1.08553,2.15355 -0.26986,0.30129 -0.36331,0.36243 -0.55397,0.36243 -0.26746,0 -0.4813,-0.21521 -0.4813,-0.48437 0,-0.0954 0.10304,-0.29913 0.22941,-0.45351 0.37838,-0.46226 0.63845,-0.93299 0.82814,-1.49889 0.68775,-2.05184 -0.22411,-4.29918 -2.15046,-5.29999 -0.70264,-0.36505 -1.26398,-0.50277 -2.04922,-0.50277 -1.20667,0 -2.27003,0.43939 -3.10798,1.28423 -0.54895,0.55347 -0.85687,1.03992 -1.10927,1.75246 -0.15148,0.42761 -0.1783,0.62113 -0.18303,1.32071 -0.005,0.67587 0.0223,0.90958 0.15317,1.33199 0.4186,1.3513 1.43539,2.41367 2.79616,2.92154 0.36125,0.13482 0.63018,0.17881 1.24779,0.2041 0.78403,0.0321 0.88757,0.0174 1.88081,-0.26694 0.38188,-0.10933 0.60793,-0.0388 0.71663,0.22364 0.13431,0.32425 -0.0131,0.53324 -0.5182,0.7344 -0.77801,0.30989 -1.87708,0.41905 -2.75288,0.27343 z m -0.56023,-3.18918 c -0.21256,-0.0656 -0.33896,-0.24376 -0.33896,-0.47778 0,-0.21136 0.0821,-0.32206 0.71723,-0.96654 l 0.71722,-0.72783 v -1.34533 c 0,-1.25425 0.009,-1.35458 0.13662,-1.48194 0.0759,-0.0759 0.22769,-0.13662 0.34153,-0.13662 0.11385,0 0.26564,0.0607 0.34154,0.13662 0.12875,0.12875 0.13662,0.22769 0.13662,1.71867 v 1.58205 l -0.82673,0.83623 c -0.78035,0.78934 -0.9881,0.9356 -1.22507,0.86247 z m -6.09063,-3.74298 c 0.0471,-0.24819 0.1463,-0.63144 0.2205,-0.85169 0.15276,-0.45345 0.18384,-1.28479 0.0529,-1.4157 -0.0865,-0.0865 -2.39726,-0.12237 -2.61058,-0.0405 -0.0933,0.0358 -0.10805,0.22022 -0.10805,1.35476 0,0.72232 0.0205,1.3338 0.0455,1.35884 0.025,0.025 0.55595,0.0455 1.1798,0.0455 h 1.13426 z m 6.4689,-7.43825 v -1.36614 h -1.36615 -1.36614 l -0.0186,1.29573 c -0.0102,0.71266 -0.003,1.33576 0.0155,1.38467 0.0268,0.0698 0.32511,0.085 1.38478,0.0704 l 1.35066,-0.0185 z m -18.591345,-7.91432 c 0.122606,-0.0512 0.282994,-0.18187 0.356419,-0.29031 0.122425,-0.1808 0.135273,-0.34416 0.154872,-1.96913 0.01812,-1.5022 0.0046,-1.81593 -0.08892,-2.06075 -0.2385,-0.6245 -0.971392,-0.72813 -1.389591,-0.19647 -0.143874,0.1829 -0.148084,0.24246 -0.148084,2.09504 0,2.1114 0.01554,2.1995 0.423375,2.4005 0.277407,0.13671 0.405893,0.14063 0.691927,0.0211 z M 111,131.99603 c 0.11251,-0.0582 0.26456,-0.20418 0.33789,-0.32446 0.12357,-0.20266 0.13336,-0.35432 0.1336,-2.06995 2.7e-4,-1.8156 -0.003,-1.85574 -0.15594,-2.08337 -0.20737,-0.30816 -0.5658,-0.43155 -0.91715,-0.31572 -0.15527,0.0512 -0.31424,0.17365 -0.40984,0.31572 -0.15324,0.2277 -0.15617,0.26715 -0.15519,2.08337 0.001,2.02832 0.01,2.07965 0.40286,2.34445 0.27074,0.18245 0.48098,0.1962 0.76377,0.05 z m -19.584368,16.71038 c -0.154638,-0.0702 -0.369806,-0.24382 -0.478151,-0.38577 l -0.196992,-0.25808 -0.02048,-1.54242 c -0.02002,-1.50743 -0.01684,-1.5493 0.140217,-1.84619 0.110906,-0.20965 0.252863,-0.35252 0.458146,-0.46108 0.284045,-0.1502 0.364185,-0.15729 1.778719,-0.15729 1.414534,0 1.494674,0.007 1.77872,0.15729 0.203305,0.10752 0.34723,0.25144 0.45474,0.45475 0.149939,0.28353 0.157294,0.3654 0.157294,1.75086 0,1.50588 -0.03041,1.7122 -0.294856,2.0007 -0.3367,0.36732 -0.577117,0.41491 -2.095898,0.41491 -1.221818,0 -1.436135,-0.0163 -1.681457,-0.12768 z m 3.072856,-1.04762 c 0.02265,-0.0845 0.04161,-0.66636 0.04212,-1.29296 7.72e-4,-0.94549 -0.01732,-1.15753 -0.106408,-1.24661 -0.08933,-0.0893 -0.306135,-0.10734 -1.292251,-0.10734 -0.651701,0 -1.233532,0.0187 -1.292959,0.0415 -0.09351,0.0359 -0.108047,0.22423 -0.108047,1.4003 v 1.35884 h 1.358178 c 1.350739,0 1.358404,-8.4e-4 1.399366,-0.15369 z m 3.082726,1.04983 c -0.634631,-0.29142 -0.717322,-0.55016 -0.716845,-2.24301 2.05e-4,-0.7432 0.03065,-1.46021 0.06764,-1.59337 0.0763,-0.27465 0.418899,-0.63634 0.704883,-0.74416 0.114388,-0.0431 0.792388,-0.072 1.673527,-0.0714 1.409831,0.001 1.494341,0.009 1.753071,0.15509 0.15242,0.0863 0.33947,0.27338 0.4258,0.42579 0.14654,0.25874 0.15401,0.34325 0.15508,1.75308 6.9e-4,0.88114 -0.0282,1.55914 -0.0714,1.67353 -0.10782,0.28598 -0.46951,0.62858 -0.74416,0.70488 -0.13316,0.037 -0.856872,0.0668 -1.608251,0.0661 -1.179428,-9.7e-4 -1.403489,-0.0183 -1.639375,-0.12659 z m 3.066516,-1.00419 c 0.0819,-0.21332 0.046,-2.52407 -0.0405,-2.61058 -0.0865,-0.0865 -2.397262,-0.12237 -2.610585,-0.0405 -0.09334,0.0358 -0.108048,0.22022 -0.108048,1.35476 0,0.72232 0.02049,1.3338 0.04554,1.35884 0.02505,0.025 0.636523,0.0455 1.358837,0.0455 1.134546,0 1.318936,-0.0147 1.354756,-0.10805 z m -8.981067,-5.42014 c -0.350497,-0.0685 -0.673044,-0.32289 -0.820173,-0.64686 -0.111076,-0.24458 -0.127155,-0.46137 -0.127155,-1.71444 0,-1.61656 0.05248,-1.85048 0.484268,-2.15843 0.227731,-0.16243 0.246164,-0.16401 1.903486,-0.16401 1.657322,0 1.675755,0.002 1.903486,0.16401 0.431447,0.30771 0.484077,0.54185 0.485768,2.16104 0.0014,1.3572 -0.007,1.45376 -0.152191,1.73783 -0.1877,0.36734 -0.420504,0.54532 -0.812299,0.62101 -0.354139,0.0684 -2.514963,0.0683 -2.86519,-1.4e-4 z m 2.804168,-1.09312 c 0.105874,-0.19783 0.09298,-2.40698 -0.0149,-2.55453 -0.07653,-0.10466 -0.223351,-0.11511 -1.383222,-0.0984 l -1.297607,0.0187 -0.01864,1.29573 c -0.01025,0.71266 -0.0035,1.33511 0.01493,1.38322 0.02566,0.0669 0.339463,0.0875 1.331151,0.0875 1.212968,0 1.302189,-0.009 1.368289,-0.13212 z m 3.296055,1.08009 c -0.37117,-0.0874 -0.735765,-0.44434 -0.836681,-0.81912 -0.04795,-0.17806 -0.06784,-0.80314 -0.054,-1.69631 0.02171,-1.40026 0.02374,-1.41707 0.203681,-1.68875 0.311488,-0.4703 0.445358,-0.50069 2.205643,-0.50069 1.725101,0 1.798741,0.0157 2.134441,0.45549 l 0.19137,0.2507 0.0212,1.47413 c 0.0117,0.81076 0.003,1.57311 -0.0198,1.69411 -0.0496,0.26614 -0.31661,0.59751 -0.60724,0.75366 -0.17678,0.095 -0.45079,0.11757 -1.580015,0.13028 -0.75138,0.008 -1.49776,-0.0156 -1.658624,-0.0535 z m 2.840344,-1.02994 c 0.12582,-0.12582 0.11462,-2.53818 -0.0123,-2.64349 -0.0653,-0.0542 -0.49031,-0.0725 -1.383223,-0.0596 l -1.288986,0.0186 -0.01864,1.29573 c -0.01025,0.71266 -0.0035,1.33511 0.01493,1.38322 0.04656,0.12133 2.567199,0.12651 2.688189,0.006 z m 3.31744,1.02851 c -0.38223,-0.0859 -0.73554,-0.43877 -0.83508,-0.8341 -0.0988,-0.39235 -0.10248,-2.61968 -0.005,-3.00233 0.0865,-0.3394 0.23226,-0.53205 0.54838,-0.72477 0.21752,-0.13261 0.33399,-0.14174 1.81051,-0.14198 1.52849,-2.8e-4 1.58528,0.005 1.80852,0.15506 0.12676,0.0854 0.30037,0.25903 0.38579,0.38579 0.15047,0.22328 0.15532,0.27997 0.15532,1.81549 0,1.53128 -0.005,1.59268 -0.15369,1.81084 -0.21357,0.31379 -0.46354,0.48323 -0.8123,0.55061 -0.39595,0.0765 -2.54516,0.0657 -2.90249,-0.0146 z m 2.87072,-1.05459 c 0.0228,-0.0594 0.0415,-0.65506 0.0415,-1.32362 0,-0.95003 -0.0206,-1.23267 -0.0942,-1.29379 -0.0653,-0.0542 -0.49031,-0.0725 -1.38322,-0.0596 l -1.28899,0.0186 -0.0186,1.29573 c -0.0102,0.71266 -0.004,1.33511 0.0149,1.38322 0.0257,0.067 0.34493,0.0875 1.3604,0.0875 1.14688,0 1.33245,-0.0146 1.36829,-0.10805 z"
         id="path2073"
         inkscape:connector-curvature="0" />
      <path
         style="fill:#0c0d2b;fill-opacity:1;stroke-width:0.06830726"
         d="m 112.75834,156.51869 c -1.57136,-0.24478 -3.25078,-1.1378 -4.34193,-2.3088 -0.41507,-0.44545 -0.97602,-1.22116 -1.20557,-1.66713 l -0.11427,-0.222 h -5.59023 c -5.552054,0 -5.591459,-9.6e-4 -5.77021,-0.14157 -0.218178,-0.17162 -0.2462,-0.52871 -0.05506,-0.70168 0.114039,-0.10321 0.599452,-0.11305 5.57435,-0.11305 5.16306,0 5.44685,-0.006 5.40042,-0.11954 -0.0791,-0.19307 -0.30221,-1.44683 -0.34538,-1.9413 l -0.0398,-0.45561 -1.21283,-0.0225 c -1.18105,-0.0219 -1.22001,-0.0273 -1.48723,-0.20428 -0.45519,-0.30149 -0.52694,-0.53633 -0.55713,-1.82358 -0.0438,-1.86701 0.0517,-2.25351 0.63908,-2.58617 0.25751,-0.14585 0.34464,-0.15367 1.72493,-0.15474 1.5752,-0.001 1.77756,0.035 2.09193,0.3742 l 0.16435,0.17733 0.30474,-0.39586 c 0.39651,-0.51506 1.21017,-1.28383 1.7061,-1.61197 0.38591,-0.25534 0.48748,-0.38911 0.29544,-0.38911 -0.0535,0 -0.1929,-0.0805 -0.30984,-0.17891 -0.39678,-0.33387 -0.41263,-0.41566 -0.41263,-2.13005 0,-1.51403 0.005,-1.57177 0.15532,-1.79483 0.0854,-0.12676 0.25903,-0.30037 0.38579,-0.38579 0.22328,-0.15047 0.27997,-0.15532 1.81549,-0.15532 1.53553,0 1.59222,0.005 1.81549,0.15532 0.12677,0.0854 0.30037,0.25903 0.3858,0.38579 0.1495,0.22185 0.15531,0.28505 0.15531,1.68898 v 1.4585 h 0.36366 c 0.50723,0 1.53909,0.18648 2.11414,0.38207 0.26584,0.0904 0.49333,0.16439 0.50553,0.16439 0.0122,0 0.0222,-1.45941 0.0222,-3.24313 v -3.24313 l -4.41188,-0.0185 -4.41187,-0.0185 -0.13056,-0.16126 c -0.16609,-0.20515 -0.16609,-0.42863 0,-0.63378 l 0.13055,-0.16126 4.41188,-0.019 4.41188,-0.019 v -1.88328 c 0,-2.12292 -0.0181,-2.21778 -0.47285,-2.47334 -0.25192,-0.14159 -0.34207,-0.14781 -2.14428,-0.14781 h -1.8813 l -0.022,1.00754 c -0.0246,1.12415 -0.081,1.31698 -0.51154,1.74752 -0.32207,0.32208 -0.6593,0.47482 -1.12603,0.51002 -0.51794,0.0391 -1.00018,-0.12729 -1.34827,-0.4651 -0.47298,-0.459 -0.51571,-0.59331 -0.55398,-1.74121 l -0.0342,-1.02461 -6.50626,-0.0174 -6.506267,-0.0174 v 0.87618 c 0,1.03073 -0.08848,1.36375 -0.480707,1.80934 -0.906073,1.02936 -2.647237,0.64831 -3.039079,-0.66508 -0.06479,-0.21717 -0.100498,-0.63583 -0.100498,-1.1783 v -0.84145 h -1.84649 c -2.055727,0 -2.213949,0.0273 -2.455117,0.42281 -0.129657,0.21267 -0.13787,0.34081 -0.13811,2.15484 l -2.55e-4,1.92873 9.364137,0.018 9.364136,0.018 0.13057,0.16126 c 0.18836,0.23262 0.16795,0.51664 -0.0494,0.68762 l -0.17998,0.14157 h -9.314724 -9.314729 v 7.70862 7.70862 l 0.156057,0.2321 c 0.08917,0.13261 0.257517,0.26704 0.392766,0.31363 0.167669,0.0577 1.057096,0.0827 3.049427,0.0854 l 2.812717,0.004 0.141572,0.17998 c 0.185917,0.23636 0.178737,0.40383 -0.02609,0.60866 l -0.167663,0.16767 h -2.859612 c -3.229924,0 -3.32937,-0.0123 -3.855368,-0.47526 -0.179499,-0.158 -0.375884,-0.42156 -0.47105,-0.63216 l -0.16321,-0.36119 v -10.31439 -10.3144 l 0.185113,-0.35095 c 0.101813,-0.19303 0.31288,-0.46032 0.469038,-0.59398 0.498922,-0.42706 0.675,-0.45537 2.832554,-0.45537 h 1.925457 l 0.0323,-0.67071 c 0.02763,-0.57384 0.06068,-0.72287 0.228834,-1.03182 0.594004,-1.09138 1.962589,-1.28987 2.840496,-0.41196 0.392501,0.3925 0.536922,0.8176 0.536922,1.58043 v 0.53406 h 6.523343 6.52335 v -0.65111 c 0,-0.74814 0.0749,-0.98058 0.44977,-1.39551 0.39694,-0.43936 0.7186,-0.58004 1.32621,-0.58004 0.58092,0 0.90578,0.13235 1.2769,0.52023 0.37122,0.38798 0.49589,0.75744 0.49759,1.47459 l 10e-4,0.63184 1.92968,3.9e-4 c 1.10257,2.1e-4 2.03735,0.0303 2.18087,0.0701 0.47935,0.13314 0.88887,0.4747 1.13058,0.94297 l 0.22345,0.43289 10e-4,6.02215 0.001,6.02215 0.40475,0.25803 c 0.53837,0.34321 1.41647,1.17685 1.83627,1.7433 0.69853,0.94256 1.20602,2.09009 1.41461,3.19873 0.14245,0.75715 0.14566,2.12749 0.007,2.83202 -0.81379,4.12366 -4.65516,6.81842 -8.79936,6.17286 z m 2.6933,-1.02952 c 2.57663,-0.58141 4.58249,-2.62091 5.11799,-5.20382 0.1939,-0.93526 0.14659,-2.3132 -0.10903,-3.17519 -1.31729,-4.44216 -6.42885,-6.29459 -10.25254,-3.71553 -1.24142,0.83733 -2.20326,2.16912 -2.67266,3.70062 -0.17412,0.56811 -0.18872,0.7055 -0.19233,1.81015 -0.003,1.05332 0.0148,1.26016 0.15391,1.74059 0.77525,2.67813 2.92905,4.57279 5.63119,4.95366 0.57353,0.0808 1.71641,0.0265 2.32347,-0.11048 z m -2.0673,-1.16387 c -2.11943,-0.28169 -3.8262,-1.67523 -4.52747,-3.69656 -0.17568,-0.50637 -0.2114,-0.72502 -0.23695,-1.45011 -0.0571,-1.62082 0.36712,-2.78047 1.43932,-3.93447 2.1398,-2.30304 5.73994,-2.30304 7.87974,0 0.73037,0.78608 1.15211,1.58656 1.36475,2.59031 0.12901,0.609 0.0902,1.94372 -0.0738,2.53953 -0.16044,0.58284 -0.60169,1.44418 -0.98222,1.91733 -0.29155,0.36252 -0.35541,0.4073 -0.60728,0.42581 -0.22899,0.0168 -0.30177,-0.008 -0.39034,-0.13474 -0.17328,-0.24739 -0.13169,-0.40431 0.24177,-0.91202 0.44438,-0.60413 0.71756,-1.17989 0.8448,-1.78051 0.31832,-1.5026 -0.11334,-2.97128 -1.19471,-4.0648 -0.8967,-0.90678 -1.88252,-1.3212 -3.14286,-1.3212 -1.26034,0 -2.24616,0.41442 -3.14286,1.3212 -1.3907,1.40634 -1.69417,3.46749 -0.76871,5.22111 0.53281,1.00961 1.67524,1.90048 2.81865,2.198 0.64444,0.16768 1.6763,0.14955 2.2883,-0.0402 0.68988,-0.21392 0.97497,-0.21023 1.144,0.0148 0.30027,0.39974 -0.0791,0.75015 -1.05816,0.97742 -0.48859,0.11342 -1.49731,0.18212 -1.89599,0.12913 z m -1.05488,-3.38588 c -0.21998,-0.31406 -0.1471,-0.45893 0.61089,-1.21434 l 0.71722,-0.71478 v -1.37156 c 0,-1.28588 0.009,-1.38091 0.13928,-1.52106 0.1757,-0.18859 0.49859,-0.1947 0.68041,-0.0129 0.12877,0.12876 0.13662,0.22769 0.13662,1.72174 v 1.58513 l -0.83978,0.83978 c -0.76733,0.76733 -0.86128,0.83978 -1.08904,0.83978 -0.18015,0 -0.27875,-0.0421 -0.3556,-0.15181 z m -5.87955,-3.4514 c 0.0266,-0.17845 0.12194,-0.555 0.2118,-0.83676 0.18947,-0.59406 0.22755,-1.43424 0.0709,-1.56424 -0.0653,-0.0542 -0.49031,-0.0725 -1.38322,-0.0596 l -1.28899,0.0186 -0.0186,1.29573 c -0.0102,0.71265 -0.004,1.3351 0.0149,1.38322 0.0255,0.0663 0.31289,0.0875 1.18918,0.0875 h 1.15561 z m 6.49044,-7.56503 v -1.36614 h -1.36615 -1.36614 l -0.0186,1.29573 c -0.0102,0.71266 -0.003,1.33576 0.0155,1.38467 0.0268,0.0698 0.32511,0.085 1.38478,0.0704 l 1.35066,-0.0185 z m -18.490082,-7.95954 c 0.392976,-0.2396 0.422822,-0.40691 0.422704,-2.36974 -1.37e-4,-2.00433 -0.02787,-2.13613 -0.498093,-2.36584 -0.494602,-0.24161 -1.073697,0.0653 -1.164926,0.61742 -0.07872,0.47638 -0.04284,3.45359 0.04468,3.7077 0.09811,0.28486 0.462804,0.54892 0.757625,0.54857 0.116544,-1.4e-4 0.313647,-0.0623 0.438007,-0.13811 z m 16.776022,-0.13112 0.2113,-0.2113 v -2.00824 -2.00825 l -0.16668,-0.17742 c -0.37319,-0.39725 -0.91369,-0.37855 -1.26916,0.0439 l -0.16938,0.2013 v 1.9139 c 0,1.6781 0.0143,1.9381 0.11603,2.11033 0.26641,0.45099 0.8958,0.51787 1.27789,0.13578 z m -19.723821,16.90512 c -0.347603,-0.12393 -0.563853,-0.33646 -0.696932,-0.68492 -0.09063,-0.23732 -0.105416,-0.53592 -0.0871,-1.75953 l 0.02205,-1.47371 0.209778,-0.26231 c 0.379352,-0.47437 0.493,-0.50117 2.125298,-0.50129 0.854424,-7e-5 1.525837,0.0296 1.639375,0.0724 0.285983,0.10782 0.628583,0.46951 0.704883,0.74416 0.03699,0.13316 0.06675,0.85687 0.06614,1.60825 -9.63e-4,1.17943 -0.01827,1.40349 -0.126587,1.63937 -0.288098,0.62739 -0.554779,0.71123 -2.262286,0.71123 -0.954969,0 -1.406329,-0.0265 -1.59462,-0.0936 z m 2.987611,-1.03302 c 0.08186,-0.21332 0.046,-2.52407 -0.04051,-2.61058 -0.05793,-0.0579 -0.457884,-0.082 -1.363742,-0.082 -1.197342,0 -1.286431,0.009 -1.352484,0.13213 -0.07531,0.14072 -0.100822,2.37391 -0.02925,2.56042 0.03588,0.0935 0.223586,0.10805 1.392991,0.10805 1.169405,0 1.357116,-0.0146 1.392991,-0.10805 z m 3.201109,1.05635 c -0.30983,-0.0895 -0.680551,-0.48361 -0.771066,-0.81975 -0.04785,-0.17769 -0.06785,-0.79158 -0.054,-1.65694 0.02463,-1.53799 0.05421,-1.65379 0.511648,-2.00298 l 0.250702,-0.19138 1.439974,-0.0213 c 0.791986,-0.0117 1.540533,-0.002 1.663443,0.0205 0.27837,0.052 0.68908,0.40515 0.81132,0.6977 0.13163,0.31504 0.13091,3.00611 -8.9e-4,3.32155 -0.1188,0.28431 -0.45424,0.56717 -0.77986,0.65761 -0.31314,0.087 -2.766663,0.083 -3.071276,-0.005 z m 2.972471,-2.27144 c 0.0131,-0.90387 -0.005,-1.31757 -0.0608,-1.38466 -0.064,-0.0772 -0.332,-0.0921 -1.384755,-0.0772 l -1.305354,0.0185 -0.0185,1.38464 -0.0185,1.38464 1.38464,-0.0185 1.384639,-0.0185 z m -9.371589,-4.36456 c -0.16714,-0.0951 -0.327912,-0.26594 -0.42692,-0.45362 -0.151636,-0.28744 -0.158816,-0.36598 -0.158816,-1.73735 0,-1.31862 0.01173,-1.46052 0.143175,-1.73205 0.09547,-0.19721 0.239723,-0.35234 0.432922,-0.46557 0.285481,-0.1673 0.312281,-0.16978 1.820658,-0.16867 1.457622,0.001 1.543747,0.008 1.799017,0.15369 0.16714,0.0951 0.327912,0.26594 0.42692,0.45361 0.151746,0.28765 0.158816,0.36548 0.158816,1.74817 0,1.38269 -0.0071,1.46052 -0.158816,1.74817 -0.09901,0.18768 -0.25978,0.3585 -0.42692,0.45362 -0.255546,0.14542 -0.340098,0.15257 -1.805018,0.15257 -1.46492,0 -1.549472,-0.007 -1.805018,-0.15257 z m 3.198009,-0.90954 c 0.08186,-0.21332 0.046,-2.52407 -0.04051,-2.61058 -0.115548,-0.11555 -2.58942,-0.11555 -2.704968,0 -0.115433,0.11543 -0.115433,2.52123 0,2.63666 0.05806,0.0581 0.464384,0.082 1.392991,0.082 1.132468,0 1.316669,-0.0147 1.352484,-0.10805 z m 3.012827,0.9385 c -0.580267,-0.36585 -0.648919,-0.60185 -0.648919,-2.23075 0,-1.43329 0.03976,-1.65367 0.359665,-1.99341 0.335368,-0.35617 0.434285,-0.37234 2.139431,-0.34976 1.526796,0.0202 1.570826,0.0247 1.795146,0.18474 0.43178,0.30795 0.48427,0.54187 0.48427,2.15843 0,1.61657 -0.0525,1.85048 -0.48427,2.15844 -0.22501,0.16048 -0.26451,0.16441 -1.835181,0.18276 -1.475677,0.0172 -1.621757,0.008 -1.810142,-0.11045 z m 3.134823,-0.9385 c 0.0621,-0.16189 0.0479,-2.5083 -0.0158,-2.60868 -0.0422,-0.0665 -0.3662,-0.0825 -1.382177,-0.0683 l -1.327022,0.0186 -0.01864,1.29573 c -0.01025,0.71266 -0.0035,1.33511 0.01493,1.38322 0.02569,0.067 0.344938,0.0875 1.3604,0.0875 1.146879,0 1.332449,-0.0146 1.368289,-0.10805 z m 2.97798,0.91066 c -0.5309,-0.36133 -0.60812,-0.64106 -0.60812,-2.20291 0,-1.56184 0.0772,-1.84158 0.60812,-2.20291 0.21763,-0.14811 0.28147,-0.15369 1.75939,-0.15369 1.7188,0 1.85742,0.0295 2.18991,0.46537 l 0.18399,0.24122 v 1.65001 1.65001 l -0.19685,0.25808 c -0.32028,0.41991 -0.4594,0.44851 -2.18161,0.44851 -1.47319,0 -1.53725,-0.006 -1.75483,-0.15369 z m 3.17698,-2.20291 v -1.36614 h -1.36614 -1.36615 l -0.0186,1.29573 c -0.0102,0.71266 -0.003,1.33576 0.0155,1.38467 0.0268,0.0698 0.32511,0.085 1.38479,0.0704 l 1.35065,-0.0185 z"
         id="path2071"
         inkscape:connector-curvature="0" />
    </g>
  </g>
</svg>
